<?xml version="1.0" encoding="UTF-8" standalone="no"?>
<!DOCTYPE svg PUBLIC "-//W3C//DTD SVG 1.1//EN"
 "http://www.w3.org/Graphics/SVG/1.1/DTD/svg11.dtd">
<!-- Generated by graphviz version 15.0.0 (20260523.1842)
 -->
<!-- Title: system&#45;architecture Pages: 1 -->
<svg width="2031pt" height="1800pt"
 viewBox="0.00 0.00 2031.00 1800.00" xmlns="http://www.w3.org/2000/svg" xmlns:xlink="http://www.w3.org/1999/xlink">
<g id="graph0" class="graph" transform="scale(1.47456 1.47456) rotate(0) translate(50.4 1170.31)">
<title>system&#45;architecture</title>
<text xml:space="preserve" text-anchor="start" x="12.12" y="-1104.56" font-family="Helvetica,sans-Serif" font-weight="bold" font-size="13.00" fill="#1c1917">Writz Protocol — System Architecture</text>
<text xml:space="preserve" text-anchor="start" x="8" y="-1095.36" font-family="Helvetica,sans-Serif" font-size="9.00" fill="#57534e">Trustless ZK&#45;private Bitcoin lending on Stellar · live on testnet</text>
<g id="clust1" class="cluster">
<title>cluster_bitcoin</title>
<path fill="none" stroke="#ea580c" stroke-width="2.5" d="M680,-563.13C680,-563.13 906,-563.13 906,-563.13 912,-563.13 918,-569.13 918,-575.13 918,-575.13 918,-921.44 918,-921.44 918,-927.44 912,-933.44 906,-933.44 906,-933.44 680,-933.44 680,-933.44 674,-933.44 668,-927.44 668,-921.44 668,-921.44 668,-575.13 668,-575.13 668,-569.13 674,-563.13 680,-563.13"/>
<text xml:space="preserve" text-anchor="start" x="740.5" y="-919.04" font-family="Helvetica,sans-Serif" font-weight="bold" font-size="12.00" fill="#ea580c">Bitcoin Network</text>
<text xml:space="preserve" text-anchor="start" x="676" y="-909.89" font-family="Helvetica,sans-Serif" font-size="9.00" fill="#57534e">Collateral locked in P2WSH · never custodied by Writz</text>
</g>
<g id="clust2" class="cluster">
<title>cluster_relayer</title>
<path fill="none" stroke="#7c3aed" stroke-width="2.5" d="M678,-416.16C678,-416.16 918,-416.16 918,-416.16 924,-416.16 930,-422.16 930,-428.16 930,-428.16 930,-516.88 930,-516.88 930,-522.88 924,-528.88 918,-528.88 918,-528.88 678,-528.88 678,-528.88 672,-528.88 666,-522.88 666,-516.88 666,-516.88 666,-428.16 666,-428.16 666,-422.16 672,-416.16 678,-416.16"/>
<text xml:space="preserve" text-anchor="start" x="723.5" y="-514.48" font-family="Helvetica,sans-Serif" font-weight="bold" font-size="12.00" fill="#7c3aed">SPV Relayer</text>
<text xml:space="preserve" text-anchor="start" x="674" y="-505.33" font-family="Helvetica,sans-Serif" font-size="9.00" fill="#57534e">Node/Bun · stateless · GET /spv&#45;proof/:txid</text>
</g>
<g id="clust3" class="cluster">
<title>cluster_soroban</title>
<path fill="none" stroke="#2563eb" stroke-width="2.5" d="M677,-8C677,-8 1175,-8 1175,-8 1181,-8 1187,-14 1187,-20 1187,-20 1187,-358.66 1187,-358.66 1187,-364.66 1181,-370.66 1175,-370.66 1175,-370.66 677,-370.66 677,-370.66 671,-370.66 665,-364.66 665,-358.66 665,-358.66 665,-20 665,-20 665,-14 671,-8 677,-8"/>
<text xml:space="preserve" text-anchor="start" x="673" y="-356.26" font-family="Helvetica,sans-Serif" font-weight="bold" font-size="12.00" fill="#2563eb">Soroban Contracts &#160;· &#160;Stellar Testnet</text>
<text xml:space="preserve" text-anchor="start" x="698.88" y="-347.11" font-family="Helvetica,sans-Serif" font-size="9.00" fill="#57534e">Four live contracts · 268 tests passing</text>
</g>
<g id="clust4" class="cluster">
<title>cluster_frontend</title>
<path fill="none" stroke="#059669" stroke-width="2.5" d="M20,-820.72C20,-820.72 648,-820.72 648,-820.72 654,-820.72 660,-826.72 660,-832.72 660,-832.72 660,-1069.9 660,-1069.9 660,-1075.9 654,-1081.9 648,-1081.9 648,-1081.9 20,-1081.9 20,-1081.9 14,-1081.9 8,-1075.9 8,-1069.9 8,-1069.9 8,-832.72 8,-832.72 8,-826.72 14,-820.72 20,-820.72"/>
<text xml:space="preserve" text-anchor="start" x="62.12" y="-1067.5" font-family="Helvetica,sans-Serif" font-weight="bold" font-size="12.00" fill="#059669">Browser &#160;· &#160;Trust Boundary</text>
<text xml:space="preserve" text-anchor="start" x="16" y="-1058.35" font-family="Helvetica,sans-Serif" font-size="9.00" fill="#57534e">ZK proofs generated in&#45;browser · secrets never leave device</text>
</g>
<!-- btc_wallet -->
<g id="node1" class="node">
<title>btc_wallet</title>
<path fill="#fff7ed" stroke="#ea580c" stroke-width="1.6" d="M887.97,-886.44C887.97,-886.44 698.03,-886.44 698.03,-886.44 692.03,-886.44 686.03,-880.44 686.03,-874.44 686.03,-874.44 686.03,-850.72 686.03,-850.72 686.03,-844.72 692.03,-838.72 698.03,-838.72 698.03,-838.72 887.97,-838.72 887.97,-838.72 893.97,-838.72 899.97,-844.72 899.97,-850.72 899.97,-850.72 899.97,-874.44 899.97,-874.44 899.97,-880.44 893.97,-886.44 887.97,-886.44"/>
<text xml:space="preserve" text-anchor="start" x="742.75" y="-867.62" font-family="Helvetica,sans-Serif" font-weight="bold" font-size="11.00" fill="#1c1917">User Bitcoin Wallet</text>
<text xml:space="preserve" text-anchor="start" x="749.5" y="-858.52" font-family="Helvetica,sans-Serif" font-size="9.00" fill="#57534e">Xverse · sats&#45;connect</text>
<text xml:space="preserve" text-anchor="start" x="701.88" y="-849.52" font-family="Helvetica,sans-Serif" font-size="9.00" fill="#a8a29e">Funds P2WSH address · signs release PSBT</text>
</g>
<!-- p2wsh -->
<g id="node2" class="node">
<title>p2wsh</title>
<path fill="#fff7ed" stroke="#ea580c" stroke-width="1.6" d="M887.59,-761.47C887.59,-761.47 698.41,-761.47 698.41,-761.47 692.41,-761.47 686.41,-755.47 686.41,-749.47 686.41,-749.47 686.41,-725.75 686.41,-725.75 686.41,-719.75 692.41,-713.75 698.41,-713.75 698.41,-713.75 887.59,-713.75 887.59,-713.75 893.59,-713.75 899.59,-719.75 899.59,-725.75 899.59,-725.75 899.59,-749.47 899.59,-749.47 899.59,-755.47 893.59,-761.47 887.59,-761.47"/>
<text xml:space="preserve" text-anchor="start" x="733.38" y="-742.65" font-family="Helvetica,sans-Serif" font-weight="bold" font-size="11.00" fill="#1c1917">P2WSH Locking Script</text>
<text xml:space="preserve" text-anchor="start" x="730.75" y="-733.55" font-family="Helvetica,sans-Serif" font-size="9.00" fill="#57534e">Path A: protocol + user co&#45;sign</text>
<text xml:space="preserve" text-anchor="start" x="702.25" y="-724.55" font-family="Helvetica,sans-Serif" font-size="9.00" fill="#a8a29e">Path B: CLTV timelock (emergency recovery)</text>
</g>
<!-- btc_wallet&#45;&gt;p2wsh -->
<g id="edge1" class="edge">
<title>btc_wallet&#45;&gt;p2wsh</title>
<path fill="none" stroke="#ea580c" stroke-width="2" d="M793,-838.16C793,-819.86 793,-794.16 793,-773.46"/>
<polygon fill="#ea580c" stroke="#ea580c" stroke-width="2" points="795.98,-773.46 793,-764.96 790.03,-773.46 795.98,-773.46"/>
<text xml:space="preserve" text-anchor="middle" x="819.62" y="-796.22" font-family="Helvetica,sans-Serif" font-size="10.00" fill="#ea580c">fund deposit</text>
</g>
<!-- btc_ledger -->
<g id="node3" class="node">
<title>btc_ledger</title>
<path fill="#fff7ed" stroke="#ea580c" stroke-width="2" d="M885.47,-640.78C885.47,-644.07 846.26,-646.75 798,-646.75 749.74,-646.75 710.53,-644.07 710.53,-640.78 710.53,-640.78 710.53,-587.1 710.53,-587.1 710.53,-583.8 749.74,-581.13 798,-581.13 846.26,-581.13 885.47,-583.8 885.47,-587.1 885.47,-587.1 885.47,-640.78 885.47,-640.78"/>
<path fill="none" stroke="#ea580c" stroke-width="2" d="M885.47,-640.78C885.47,-637.49 846.26,-634.81 798,-634.81 749.74,-634.81 710.53,-637.49 710.53,-640.78"/>
<text xml:space="preserve" text-anchor="start" x="759.38" y="-618.99" font-family="Helvetica,sans-Serif" font-weight="bold" font-size="11.00" fill="#1c1917">Bitcoin Ledger</text>
<text xml:space="preserve" text-anchor="start" x="763.5" y="-609.89" font-family="Helvetica,sans-Serif" font-size="9.00" fill="#57534e">Testnet / Mainnet</text>
<text xml:space="preserve" text-anchor="start" x="726.38" y="-600.89" font-family="Helvetica,sans-Serif" font-size="9.00" fill="#a8a29e">Source of truth for collateral UTXOs</text>
</g>
<!-- p2wsh&#45;&gt;btc_ledger -->
<g id="edge2" class="edge">
<title>p2wsh&#45;&gt;btc_ledger</title>
<path fill="none" stroke="#ea580c" stroke-width="2" d="M793.96,-713.15C794.6,-697.78 795.44,-677.22 796.19,-658.88"/>
<polygon fill="#ea580c" stroke="#ea580c" stroke-width="2" points="799.16,-659.16 796.54,-650.55 793.22,-658.92 799.16,-659.16"/>
</g>
<!-- relayer -->
<g id="node4" class="node">
<title>relayer</title>
<path fill="#faf5ff" stroke="#7c3aed" stroke-width="1.6" d="M900.09,-481.88C900.09,-481.88 695.91,-481.88 695.91,-481.88 689.91,-481.88 683.91,-475.88 683.91,-469.88 683.91,-469.88 683.91,-446.16 683.91,-446.16 683.91,-440.16 689.91,-434.16 695.91,-434.16 695.91,-434.16 900.09,-434.16 900.09,-434.16 906.09,-434.16 912.09,-440.16 912.09,-446.16 912.09,-446.16 912.09,-469.88 912.09,-469.88 912.09,-475.88 906.09,-481.88 900.09,-481.88"/>
<text xml:space="preserve" text-anchor="start" x="765.38" y="-463.07" font-family="Helvetica,sans-Serif" font-weight="bold" font-size="11.00" fill="#1c1917">SPV Relayer</text>
<text xml:space="preserve" text-anchor="start" x="751.5" y="-453.97" font-family="Helvetica,sans-Serif" font-size="9.00" fill="#57534e">Watches Bitcoin blocks</text>
<text xml:space="preserve" text-anchor="start" x="699.75" y="-444.97" font-family="Helvetica,sans-Serif" font-size="9.00" fill="#a8a29e">Builds merkle proof + block headers for Soroban</text>
</g>
<!-- btc_ledger&#45;&gt;relayer -->
<g id="edge3" class="edge">
<title>btc_ledger&#45;&gt;relayer</title>
<path fill="none" stroke="#7c3aed" stroke-width="1.4" stroke-dasharray="5,2" d="M798,-580.3C798,-554.66 798,-519.07 798,-493.08"/>
<polygon fill="#7c3aed" stroke="#7c3aed" stroke-width="1.4" points="800.98,-493.2 798,-484.7 795.03,-493.2 800.98,-493.2"/>
<text xml:space="preserve" text-anchor="middle" x="820.5" y="-538.63" font-family="Helvetica,sans-Serif" font-size="10.00" fill="#7c3aed">block data</text>
</g>
<!-- bitcoin_spv -->
<g id="node5" class="node">
<title>bitcoin_spv</title>
<path fill="#eff6ff" stroke="#2563eb" stroke-width="1.6" d="M891.47,-323.66C891.47,-323.66 704.53,-323.66 704.53,-323.66 698.53,-323.66 692.53,-317.66 692.53,-311.66 692.53,-311.66 692.53,-287.94 692.53,-287.94 692.53,-281.94 698.53,-275.94 704.53,-275.94 704.53,-275.94 891.47,-275.94 891.47,-275.94 897.47,-275.94 903.47,-281.94 903.47,-287.94 903.47,-287.94 903.47,-311.66 903.47,-311.66 903.47,-317.66 897.47,-323.66 891.47,-323.66"/>
<text xml:space="preserve" text-anchor="start" x="768.75" y="-304.85" font-family="Helvetica,sans-Serif" font-weight="bold" font-size="11.00" fill="#1c1917">bitcoin&#45;spv</text>
<text xml:space="preserve" text-anchor="start" x="744" y="-295.75" font-family="Helvetica,sans-Serif" font-size="9.00" fill="#57534e">Verifies Bitcoin SPV proofs</text>
<text xml:space="preserve" text-anchor="start" x="708.38" y="-286.75" font-family="Helvetica,sans-Serif" font-size="9.00" fill="#a8a29e">Block headers · merkle paths · confirmations</text>
</g>
<!-- relayer&#45;&gt;bitcoin_spv -->
<g id="edge4" class="edge">
<title>relayer&#45;&gt;bitcoin_spv</title>
<path fill="none" stroke="#7c3aed" stroke-width="1.4" d="M798,-433.63C798,-407.4 798,-364.63 798,-334.73"/>
<polygon fill="#7c3aed" stroke="#7c3aed" stroke-width="1.4" points="800.98,-334.97 798,-326.47 795.03,-334.97 800.98,-334.97"/>
<text xml:space="preserve" text-anchor="middle" x="851.25" y="-391.66" font-family="Helvetica,sans-Serif" font-size="10.00" fill="#7c3aed">SPV bundle</text>
<text xml:space="preserve" text-anchor="middle" x="851.25" y="-380.41" font-family="Helvetica,sans-Serif" font-size="10.00" fill="#7c3aed">(headers + merkle proof)</text>
</g>
<!-- commitment_tree -->
<g id="node7" class="node">
<title>commitment_tree</title>
<path fill="#eff6ff" stroke="#2563eb" stroke-width="1.6" d="M891.47,-198.69C891.47,-198.69 704.53,-198.69 704.53,-198.69 698.53,-198.69 692.53,-192.69 692.53,-186.69 692.53,-186.69 692.53,-162.97 692.53,-162.97 692.53,-156.97 698.53,-150.97 704.53,-150.97 704.53,-150.97 891.47,-150.97 891.47,-150.97 897.47,-150.97 903.47,-156.97 903.47,-162.97 903.47,-162.97 903.47,-186.69 903.47,-186.69 903.47,-192.69 897.47,-198.69 891.47,-198.69"/>
<text xml:space="preserve" text-anchor="start" x="753.38" y="-179.88" font-family="Helvetica,sans-Serif" font-weight="bold" font-size="11.00" fill="#1c1917">commitment&#45;tree</text>
<text xml:space="preserve" text-anchor="start" x="733.12" y="-170.78" font-family="Helvetica,sans-Serif" font-size="9.00" fill="#57534e">Poseidon Merkle tree · depth 20</text>
<text xml:space="preserve" text-anchor="start" x="708.38" y="-161.78" font-family="Helvetica,sans-Serif" font-size="9.00" fill="#a8a29e">deposit · borrow · repay · insert_commitment</text>
</g>
<!-- bitcoin_spv&#45;&gt;commitment_tree -->
<g id="edge9" class="edge">
<title>bitcoin_spv&#45;&gt;commitment_tree</title>
<path fill="none" stroke="#2563eb" stroke-width="1.4" d="M798,-275.38C798,-256.75 798,-230.43 798,-209.53"/>
<polygon fill="#2563eb" stroke="#2563eb" stroke-width="1.4" points="800.98,-209.78 798,-201.28 795.03,-209.78 800.98,-209.78"/>
<text xml:space="preserve" text-anchor="middle" x="825.38" y="-233.44" font-family="Helvetica,sans-Serif" font-size="10.00" fill="#57534e">SPV verified</text>
</g>
<!-- zk_verifier -->
<g id="node6" class="node">
<title>zk_verifier</title>
<path fill="#f0f9ff" stroke="#0284c7" stroke-width="1.6" d="M901.22,-73.72C901.22,-73.72 694.78,-73.72 694.78,-73.72 688.78,-73.72 682.78,-67.72 682.78,-61.72 682.78,-61.72 682.78,-38 682.78,-38 682.78,-32 688.78,-26 694.78,-26 694.78,-26 901.22,-26 901.22,-26 907.22,-26 913.22,-32 913.22,-38 913.22,-38 913.22,-61.72 913.22,-61.72 913.22,-67.72 907.22,-73.72 901.22,-73.72"/>
<text xml:space="preserve" text-anchor="start" x="772.12" y="-54.91" font-family="Helvetica,sans-Serif" font-weight="bold" font-size="11.00" fill="#1c1917">zk&#45;verifier</text>
<text xml:space="preserve" text-anchor="start" x="744.75" y="-45.81" font-family="Helvetica,sans-Serif" font-size="9.00" fill="#57534e">Groth16 / BN254 on&#45;chain</text>
<text xml:space="preserve" text-anchor="start" x="698.62" y="-36.81" font-family="Helvetica,sans-Serif" font-size="9.00" fill="#a8a29e">Protocol X&#45;Ray host functions · verifies all circuits</text>
</g>
<!-- commitment_tree&#45;&gt;zk_verifier -->
<g id="edge10" class="edge">
<title>commitment_tree&#45;&gt;zk_verifier</title>
<path fill="none" stroke="#0284c7" stroke-width="1.4" d="M798,-150.41C798,-131.78 798,-105.46 798,-84.56"/>
<polygon fill="#0284c7" stroke="#0284c7" stroke-width="1.4" points="800.98,-84.81 798,-76.31 795.03,-84.81 800.98,-84.81"/>
<text xml:space="preserve" text-anchor="middle" x="876.75" y="-108.47" font-family="Helvetica,sans-Serif" font-size="10.00" fill="#0284c7">verify_deposit / verify_borrow_repay</text>
</g>
<!-- private_lend -->
<g id="node8" class="node">
<title>private_lend</title>
<path fill="#eff6ff" stroke="#2563eb" stroke-width="1.6" d="M1157.09,-73.72C1157.09,-73.72 964.91,-73.72 964.91,-73.72 958.91,-73.72 952.91,-67.72 952.91,-61.72 952.91,-61.72 952.91,-38 952.91,-38 952.91,-32 958.91,-26 964.91,-26 964.91,-26 1157.09,-26 1157.09,-26 1163.09,-26 1169.09,-32 1169.09,-38 1169.09,-38 1169.09,-61.72 1169.09,-61.72 1169.09,-67.72 1163.09,-73.72 1157.09,-73.72"/>
<text xml:space="preserve" text-anchor="start" x="1029.88" y="-54.91" font-family="Helvetica,sans-Serif" font-weight="bold" font-size="11.00" fill="#1c1917">private&#45;lend</text>
<text xml:space="preserve" text-anchor="start" x="1021.25" y="-45.81" font-family="Helvetica,sans-Serif" font-size="9.00" fill="#57534e">USDC lending pool</text>
<text xml:space="preserve" text-anchor="start" x="968.75" y="-36.81" font-family="Helvetica,sans-Serif" font-size="9.00" fill="#a8a29e">supply · withdraw · collateral ratio · liquidation</text>
</g>
<!-- commitment_tree&#45;&gt;private_lend -->
<g id="edge11" class="edge">
<title>commitment_tree&#45;&gt;private_lend</title>
<path fill="none" stroke="#2563eb" stroke-width="1.4" d="M885,-150.27C911.65,-141.65 940.63,-130.8 966,-117.97 986.44,-107.64 1007.42,-93.28 1024.45,-80.5"/>
<polygon fill="#2563eb" stroke="#2563eb" stroke-width="1.4" points="1025.83,-83.19 1030.79,-75.66 1022.22,-78.46 1025.83,-83.19"/>
<text xml:space="preserve" text-anchor="middle" x="1018.02" y="-108.47" font-family="Helvetica,sans-Serif" font-size="10.00" fill="#57534e">USDC transfer</text>
</g>
<!-- stellar_wallet -->
<g id="node9" class="node">
<title>stellar_wallet</title>
<path fill="#ecfdf5" stroke="#059669" stroke-width="1.6" d="M158.09,-1034.9C158.09,-1034.9 37.91,-1034.9 37.91,-1034.9 31.91,-1034.9 25.91,-1028.9 25.91,-1022.9 25.91,-1022.9 25.91,-999.19 25.91,-999.19 25.91,-993.19 31.91,-987.19 37.91,-987.19 37.91,-987.19 158.09,-987.19 158.09,-987.19 164.09,-987.19 170.09,-993.19 170.09,-999.19 170.09,-999.19 170.09,-1022.9 170.09,-1022.9 170.09,-1028.9 164.09,-1034.9 158.09,-1034.9"/>
<text xml:space="preserve" text-anchor="start" x="63.5" y="-1016.1" font-family="Helvetica,sans-Serif" font-weight="bold" font-size="11.00" fill="#1c1917">Stellar Wallet</text>
<text xml:space="preserve" text-anchor="start" x="42.12" y="-1007" font-family="Helvetica,sans-Serif" font-size="9.00" fill="#57534e">Freighter · stellar&#45;wallets&#45;kit</text>
<text xml:space="preserve" text-anchor="start" x="41.75" y="-998" font-family="Helvetica,sans-Serif" font-size="9.00" fill="#a8a29e">Signs Soroban transactions</text>
</g>
<!-- stellar_wallet&#45;&gt;commitment_tree -->
<g id="edge6" class="edge">
<title>stellar_wallet&#45;&gt;commitment_tree</title>
<path fill="none" stroke="#2563eb" stroke-width="1.4" d="M98.52,-986.45C99.11,-957.51 100,-906.94 100,-863.58 100,-863.58 100,-863.58 100,-298.8 100,-240.47 482.9,-201.09 681.51,-184.58"/>
<polygon fill="#2563eb" stroke="#2563eb" stroke-width="1.4" points="681.65,-187.56 689.88,-183.89 681.16,-181.63 681.65,-187.56"/>
<text xml:space="preserve" text-anchor="middle" x="166.75" y="-610.06" font-family="Helvetica,sans-Serif" font-size="10.00" fill="#2563eb">signed deposit/borrow/repay tx</text>
</g>
<!-- stellar_wallet&#45;&gt;private_lend -->
<g id="edge7" class="edge">
<title>stellar_wallet&#45;&gt;private_lend</title>
<path fill="none" stroke="#2563eb" stroke-width="1.4" stroke-dasharray="5,2" d="M170.82,-990.65C177.28,-989.32 183.74,-988.14 190,-987.19 515.12,-937.7 606.64,-1003.3 928,-933.44 1027.42,-911.82 1146,-965.32 1146,-863.58 1146,-863.58 1146,-863.58 1146,-173.83 1146,-137.69 1120.85,-104.48 1097.91,-81.71"/>
<polygon fill="#2563eb" stroke="#2563eb" stroke-width="1.4" points="1099.99,-79.58 1091.78,-75.86 1095.88,-83.88 1099.99,-79.58"/>
<text xml:space="preserve" text-anchor="middle" x="1184.25" y="-538.63" font-family="Helvetica,sans-Serif" font-size="10.00" fill="#57534e">supply / withdraw</text>
</g>
<!-- zk_prover -->
<g id="node10" class="node">
<title>zk_prover</title>
<path fill="#f0f9ff" stroke="#0284c7" stroke-width="1.6" d="M403.84,-1034.9C403.84,-1034.9 222.16,-1034.9 222.16,-1034.9 216.16,-1034.9 210.16,-1028.9 210.16,-1022.9 210.16,-1022.9 210.16,-999.19 210.16,-999.19 210.16,-993.19 216.16,-987.19 222.16,-987.19 222.16,-987.19 403.84,-987.19 403.84,-987.19 409.84,-987.19 415.84,-993.19 415.84,-999.19 415.84,-999.19 415.84,-1022.9 415.84,-1022.9 415.84,-1028.9 409.84,-1034.9 403.84,-1034.9"/>
<text xml:space="preserve" text-anchor="start" x="256" y="-1016.1" font-family="Helvetica,sans-Serif" font-weight="bold" font-size="11.00" fill="#1c1917">In&#45;Browser ZK Prover</text>
<text xml:space="preserve" text-anchor="start" x="278.5" y="-1007" font-family="Helvetica,sans-Serif" font-size="9.00" fill="#57534e">snarkjs · Groth16</text>
<text xml:space="preserve" text-anchor="start" x="226" y="-998" font-family="Helvetica,sans-Serif" font-size="9.00" fill="#a8a29e">deposit · borrow_repay · liquidation circuits</text>
</g>
<!-- zk_prover&#45;&gt;commitment_tree -->
<g id="edge5" class="edge">
<title>zk_prover&#45;&gt;commitment_tree</title>
<path fill="none" stroke="#0284c7" stroke-width="2" d="M416.58,-990.18C423.15,-989.11 429.66,-988.1 436,-987.19 544.85,-971.43 833.86,-990.3 928,-933.44 960.25,-913.96 976,-901.25 976,-863.58 976,-863.58 976,-863.58 976,-298.8 976,-252.91 935.46,-222.81 893.07,-203.89"/>
<polygon fill="#0284c7" stroke="#0284c7" stroke-width="2" points="894.34,-201.2 885.36,-200.61 892.02,-206.67 894.34,-201.2"/>
<text xml:space="preserve" text-anchor="middle" x="1030.38" y="-610.06" font-family="Helvetica,sans-Serif" font-size="10.00" fill="#0284c7">ZK proof + public signals</text>
</g>
<!-- position_store -->
<g id="node11" class="node">
<title>position_store</title>
<path fill="#ecfdf5" stroke="#059669" stroke-width="1.6" d="M384.59,-886.44C384.59,-886.44 177.41,-886.44 177.41,-886.44 171.41,-886.44 165.41,-880.44 165.41,-874.44 165.41,-874.44 165.41,-850.72 165.41,-850.72 165.41,-844.72 171.41,-838.72 177.41,-838.72 177.41,-838.72 384.59,-838.72 384.59,-838.72 390.59,-838.72 396.59,-844.72 396.59,-850.72 396.59,-850.72 396.59,-874.44 396.59,-874.44 396.59,-880.44 390.59,-886.44 384.59,-886.44"/>
<text xml:space="preserve" text-anchor="start" x="243.5" y="-867.62" font-family="Helvetica,sans-Serif" font-weight="bold" font-size="11.00" fill="#1c1917">Position Store</text>
<text xml:space="preserve" text-anchor="start" x="218" y="-858.52" font-family="Helvetica,sans-Serif" font-size="9.00" fill="#57534e">localStorage only · no backend</text>
<text xml:space="preserve" text-anchor="start" x="181.25" y="-849.52" font-family="Helvetica,sans-Serif" font-size="9.00" fill="#a8a29e">secret · nonce · commitment · nullifier · btcPubkey</text>
</g>
<!-- zk_prover&#45;&gt;position_store -->
<g id="edge15" class="edge">
<title>zk_prover&#45;&gt;position_store</title>
<path fill="none" stroke="#a8a29e" stroke-width="1.4" stroke-dasharray="5,2" d="M230.09,-986.55C215.48,-978.63 202.12,-968.12 193.25,-954.19 178.67,-931.3 198.76,-909.35 223.37,-892.78"/>
<polygon fill="#a8a29e" stroke="#a8a29e" stroke-width="1.4" points="224.85,-895.36 230.43,-888.29 221.66,-890.34 224.85,-895.36"/>
<text xml:space="preserve" text-anchor="middle" x="252.12" y="-943.94" font-family="Helvetica,sans-Serif" font-size="10.00" fill="#57534e">save commitment / nullifier</text>
</g>
<!-- position_store&#45;&gt;zk_prover -->
<g id="edge16" class="edge">
<title>position_store&#45;&gt;zk_prover</title>
<path fill="none" stroke="#a8a29e" stroke-width="1.4" stroke-dasharray="5,2" d="M295.18,-887.17C303.34,-902.14 312.78,-922.24 317,-941.44 319.47,-952.65 319.51,-965.13 318.61,-976.34"/>
<polygon fill="#a8a29e" stroke="#a8a29e" stroke-width="1.4" points="315.68,-975.73 317.73,-984.5 321.6,-976.37 315.68,-975.73"/>
<text xml:space="preserve" text-anchor="middle" x="373.8" y="-943.94" font-family="Helvetica,sans-Serif" font-size="10.00" fill="#57534e">secret · nonce · collateral</text>
</g>
<!-- btc_lib -->
<g id="node12" class="node">
<title>btc_lib</title>
<path fill="#fff7ed" stroke="#ea580c" stroke-width="1.6" d="M630.09,-1034.9C630.09,-1034.9 467.91,-1034.9 467.91,-1034.9 461.91,-1034.9 455.91,-1028.9 455.91,-1022.9 455.91,-1022.9 455.91,-999.19 455.91,-999.19 455.91,-993.19 461.91,-987.19 467.91,-987.19 467.91,-987.19 630.09,-987.19 630.09,-987.19 636.09,-987.19 642.09,-993.19 642.09,-999.19 642.09,-999.19 642.09,-1022.9 642.09,-1022.9 642.09,-1028.9 636.09,-1034.9 630.09,-1034.9"/>
<text xml:space="preserve" text-anchor="start" x="503.62" y="-1016.1" font-family="Helvetica,sans-Serif" font-weight="bold" font-size="11.00" fill="#1c1917">Bitcoin (browser)</text>
<text xml:space="preserve" text-anchor="start" x="496.5" y="-1007" font-family="Helvetica,sans-Serif" font-size="9.00" fill="#57534e">bitcoinjs&#45;lib · sats&#45;connect</text>
<text xml:space="preserve" text-anchor="start" x="471.75" y="-998" font-family="Helvetica,sans-Serif" font-size="9.00" fill="#a8a29e">P2WSH derivation · PSBT build + sign</text>
</g>
<!-- btc_lib&#45;&gt;btc_wallet -->
<g id="edge13" class="edge">
<title>btc_lib&#45;&gt;btc_wallet</title>
<path fill="none" stroke="#ea580c" stroke-width="1.4" d="M589.76,-986.6C606.87,-976.68 626.95,-964.96 645,-954.19 679.11,-933.82 717.35,-910.4 746.41,-892.47"/>
<polygon fill="#ea580c" stroke="#ea580c" stroke-width="1.4" points="747.65,-895.2 753.32,-888.2 744.52,-890.14 747.65,-895.2"/>
<text xml:space="preserve" text-anchor="middle" x="704.24" y="-943.94" font-family="Helvetica,sans-Serif" font-size="10.00" fill="#ea580c">signPsbt (Xverse)</text>
</g>
<!-- btc_lib&#45;&gt;btc_ledger -->
<g id="edge14" class="edge">
<title>btc_lib&#45;&gt;btc_ledger</title>
<path fill="none" stroke="#e3a646" stroke-width="2" d="M642.75,-1008.54C809.07,-1004.88 1141.69,-992.77 1177,-954.19 1224.92,-901.81 1214.96,-854.45 1177,-794.47 1145.04,-743.96 998.17,-684.39 896.94,-648.16"/>
<polygon fill="#e3a646" stroke="#e3a646" stroke-width="2" points="898.23,-645.46 889.23,-645.42 896.24,-651.07 898.23,-645.46"/>
<text xml:space="preserve" text-anchor="middle" x="1230.18" y="-796.22" font-family="Helvetica,sans-Serif" font-size="10.00" fill="#e3a646">broadcast finalized tx</text>
</g>
<!-- admin_api -->
<g id="node13" class="node">
<title>admin_api</title>
<path fill="#faf5ff" stroke="#7c3aed" stroke-width="1.6" d="M629.72,-886.44C629.72,-886.44 450.28,-886.44 450.28,-886.44 444.28,-886.44 438.28,-880.44 438.28,-874.44 438.28,-874.44 438.28,-850.72 438.28,-850.72 438.28,-844.72 444.28,-838.72 450.28,-838.72 450.28,-838.72 629.72,-838.72 629.72,-838.72 635.72,-838.72 641.72,-844.72 641.72,-850.72 641.72,-850.72 641.72,-874.44 641.72,-874.44 641.72,-880.44 635.72,-886.44 629.72,-886.44"/>
<text xml:space="preserve" text-anchor="start" x="491.25" y="-867.62" font-family="Helvetica,sans-Serif" font-weight="bold" font-size="11.00" fill="#1c1917">Next.js API Routes</text>
<text xml:space="preserve" text-anchor="start" x="454.12" y="-858.52" font-family="Helvetica,sans-Serif" font-size="9.00" fill="#57534e">/api/insert&#45;commitment (ADMIN_SECRET)</text>
<text xml:space="preserve" text-anchor="start" x="455.62" y="-849.52" font-family="Helvetica,sans-Serif" font-size="9.00" fill="#a8a29e">/api/cosign (PROTOCOL_SIGNING_KEY)</text>
</g>
<!-- btc_lib&#45;&gt;admin_api -->
<g id="edge12" class="edge">
<title>btc_lib&#45;&gt;admin_api</title>
<path fill="none" stroke="#ea580c" stroke-width="1.4" stroke-dasharray="5,2" d="M547.55,-986.51C546.07,-962.38 543.75,-924.62 542.07,-897.32"/>
<polygon fill="#ea580c" stroke="#ea580c" stroke-width="1.4" points="545.06,-897.47 541.57,-889.16 539.12,-897.83 545.06,-897.47"/>
<text xml:space="preserve" text-anchor="middle" x="589.93" y="-944.69" font-family="Helvetica,sans-Serif" font-size="10.00" fill="#ea580c">PSBT → /api/cosign</text>
</g>
<!-- admin_api&#45;&gt;commitment_tree -->
<g id="edge8" class="edge">
<title>admin_api&#45;&gt;commitment_tree</title>
<path fill="none" stroke="#7c3aed" stroke-width="1.4" stroke-dasharray="5,2" d="M553.61,-837.93C566.2,-813.78 583,-774.79 583,-738.61 583,-738.61 583,-738.61 583,-298.8 583,-246.69 631.18,-216.36 681.93,-198.86"/>
<polygon fill="#7c3aed" stroke="#7c3aed" stroke-width="1.4" points="682.6,-201.78 689.75,-196.3 680.74,-196.12 682.6,-201.78"/>
<text xml:space="preserve" text-anchor="middle" x="647.12" y="-538.63" font-family="Helvetica,sans-Serif" font-size="10.00" fill="#7c3aed">insert_commitment (Phase 1)</text>
</g>
</g>
</svg>
