<?xml version="1.0" encoding="UTF-8" standalone="no"?>
<!DOCTYPE svg PUBLIC "-//W3C//DTD SVG 1.1//EN"
 "http://www.w3.org/Graphics/SVG/1.1/DTD/svg11.dtd">
<!-- Generated by graphviz version 15.0.0 (20260523.1842)
 -->
<!-- Title: deposit&#45;flow Pages: 1 -->
<svg width="2700pt" height="242pt"
 viewBox="0.00 0.00 2700.00 242.00" xmlns="http://www.w3.org/2000/svg" xmlns:xlink="http://www.w3.org/1999/xlink">
<g id="graph0" class="graph" transform="scale(0.906999 0.906999) rotate(0) translate(50.4 216.12)">
<title>deposit&#45;flow</title>
<text xml:space="preserve" text-anchor="start" x="71" y="-150.37" font-family="Helvetica,sans-Serif" font-weight="bold" font-size="13.00" fill="#1c1917">Writz Protocol — Deposit Flow</text>
<text xml:space="preserve" text-anchor="start" x="8" y="-141.17" font-family="Helvetica,sans-Serif" font-size="9.00" fill="#57534e">BTC locked on Bitcoin · ZK commitment registered on Soroban · 6&#45;step process</text>
<!-- s1 -->
<g id="node1" class="node">
<title>s1</title>
<path fill="#ecfdf5" stroke="#059669" stroke-width="1.6" d="M119.43,-91.72C119.43,-91.72 12,-91.72 12,-91.72 6,-91.72 0,-85.72 0,-79.72 0,-79.72 0,-56 0,-56 0,-50 6,-44 12,-44 12,-44 119.43,-44 119.43,-44 125.43,-44 131.43,-50 131.43,-56 131.43,-56 131.43,-79.72 131.43,-79.72 131.43,-85.72 125.43,-91.72 119.43,-91.72"/>
<text xml:space="preserve" text-anchor="start" x="15.84" y="-72.91" font-family="Helvetica,sans-Serif" font-weight="bold" font-size="11.00" fill="#1c1917">① Connect Wallets</text>
<text xml:space="preserve" text-anchor="start" x="16.97" y="-63.81" font-family="Helvetica,sans-Serif" font-size="9.00" fill="#57534e">Stellar wallet (Freighter)</text>
<text xml:space="preserve" text-anchor="start" x="20.34" y="-54.81" font-family="Helvetica,sans-Serif" font-size="9.00" fill="#a8a29e">Bitcoin wallet (Xverse)</text>
</g>
<!-- s2 -->
<g id="node2" class="node">
<title>s2</title>
<path fill="#fff7ed" stroke="#ea580c" stroke-width="1.6" d="M423.61,-91.72C423.61,-91.72 210.43,-91.72 210.43,-91.72 204.43,-91.72 198.43,-85.72 198.43,-79.72 198.43,-79.72 198.43,-56 198.43,-56 198.43,-50 204.43,-44 210.43,-44 210.43,-44 423.61,-44 423.61,-44 429.61,-44 435.61,-50 435.61,-56 435.61,-56 435.61,-79.72 435.61,-79.72 435.61,-85.72 429.61,-91.72 423.61,-91.72"/>
<text xml:space="preserve" text-anchor="start" x="248.4" y="-72.91" font-family="Helvetica,sans-Serif" font-weight="bold" font-size="11.00" fill="#1c1917">② Derive P2WSH Address</text>
<text xml:space="preserve" text-anchor="start" x="214.27" y="-63.81" font-family="Helvetica,sans-Serif" font-size="9.00" fill="#57534e">protocolPubkey + userBtcPubkey + timelockHeight</text>
<text xml:space="preserve" text-anchor="start" x="254.77" y="-54.81" font-family="Helvetica,sans-Serif" font-size="9.00" fill="#a8a29e">Deterministic · unique per user</text>
</g>
<!-- s1&#45;&gt;s2 -->
<g id="edge1" class="edge">
<title>s1&#45;&gt;s2</title>
<path fill="none" stroke="#e3a646" stroke-width="2" d="M132.07,-67.86C132.07,-67.86 186.22,-67.86 186.22,-67.86"/>
<polygon fill="#e3a646" stroke="#e3a646" stroke-width="2" points="186.22,-70.84 194.72,-67.86 186.22,-64.89 186.22,-70.84"/>
</g>
<!-- s3 -->
<g id="node3" class="node">
<title>s3</title>
<path fill="#fff7ed" stroke="#ea580c" stroke-width="1.6" d="M743.29,-91.72C743.29,-91.72 618.61,-91.72 618.61,-91.72 612.61,-91.72 606.61,-85.72 606.61,-79.72 606.61,-79.72 606.61,-56 606.61,-56 606.61,-50 612.61,-44 618.61,-44 618.61,-44 743.29,-44 743.29,-44 749.29,-44 755.29,-50 755.29,-56 755.29,-56 755.29,-79.72 755.29,-79.72 755.29,-85.72 749.29,-91.72 743.29,-91.72"/>
<text xml:space="preserve" text-anchor="start" x="638.95" y="-72.91" font-family="Helvetica,sans-Serif" font-weight="bold" font-size="11.00" fill="#1c1917">③ Fund P2WSH</text>
<text xml:space="preserve" text-anchor="start" x="625.08" y="-63.81" font-family="Helvetica,sans-Serif" font-size="9.00" fill="#57534e">User sends BTC via Xverse</text>
<text xml:space="preserve" text-anchor="start" x="622.45" y="-54.81" font-family="Helvetica,sans-Serif" font-size="9.00" fill="#a8a29e">Minimum 0.001 BTC · testnet</text>
</g>
<!-- s2&#45;&gt;s3 -->
<g id="edge2" class="edge">
<title>s2&#45;&gt;s3</title>
<path fill="none" stroke="#ea580c" stroke-width="2" d="M436.18,-67.86C436.18,-67.86 594.31,-67.86 594.31,-67.86"/>
<polygon fill="#ea580c" stroke="#ea580c" stroke-width="2" points="594.31,-70.84 602.81,-67.86 594.31,-64.89 594.31,-70.84"/>
<text xml:space="preserve" text-anchor="middle" x="521.11" y="-69.61" font-family="Helvetica,sans-Serif" font-size="10.00" fill="#ea580c">tb1q… P2WSH address</text>
</g>
<!-- btc_confirm -->
<g id="node4" class="node">
<title>btc_confirm</title>
<path fill="#fffbeb" stroke="#d97706" stroke-width="1.6" d="M984.85,-111.74C984.85,-111.74 866.41,-71.7 866.41,-71.7 860.72,-69.78 860.72,-65.94 866.41,-64.02 866.41,-64.02 984.85,-23.98 984.85,-23.98 990.54,-22.06 1001.9,-22.06 1007.59,-23.98 1007.59,-23.98 1126.03,-64.02 1126.03,-64.02 1131.72,-65.94 1131.72,-69.78 1126.03,-71.7 1126.03,-71.7 1007.59,-111.74 1007.59,-111.74 1001.9,-113.66 990.54,-113.66 984.85,-111.74"/>
<text xml:space="preserve" text-anchor="start" x="941.47" y="-72.91" font-family="Helvetica,sans-Serif" font-weight="bold" font-size="11.00" fill="#1c1917">Bitcoin Confirmation</text>
<text xml:space="preserve" text-anchor="start" x="960.97" y="-63.81" font-family="Helvetica,sans-Serif" font-size="9.00" fill="#57534e">6 blocks required</text>
<text xml:space="preserve" text-anchor="start" x="947.1" y="-54.81" font-family="Helvetica,sans-Serif" font-size="9.00" fill="#a8a29e">~60 minutes on mainnet</text>
</g>
<!-- s3&#45;&gt;btc_confirm -->
<g id="edge3" class="edge">
<title>s3&#45;&gt;btc_confirm</title>
<path fill="none" stroke="#ea580c" stroke-width="2" d="M756.06,-75.81C756.06,-75.81 864.58,-75.81 864.58,-75.81"/>
<polygon fill="#ea580c" stroke="#ea580c" stroke-width="2" points="864.58,-78.79 873.08,-75.81 864.58,-72.84 864.58,-78.79"/>
</g>
<!-- btc_confirm&#45;&gt;s3 -->
<g id="edge5" class="edge">
<title>btc_confirm&#45;&gt;s3</title>
<path fill="none" stroke="#d97706" stroke-width="1.4" stroke-dasharray="5,2" d="M876.13,-59.91C876.13,-59.91 766.62,-59.91 766.62,-59.91"/>
<polygon fill="#d97706" stroke="#d97706" stroke-width="1.4" points="766.62,-56.93 758.12,-59.91 766.62,-62.88 766.62,-56.93"/>
<text xml:space="preserve" text-anchor="middle" x="805.17" y="-51.61" font-family="Helvetica,sans-Serif" font-size="10.00" fill="#d97706">pending</text>
</g>
<!-- s4 -->
<g id="node5" class="node">
<title>s4</title>
<path fill="#faf5ff" stroke="#7c3aed" stroke-width="1.6" d="M1425.58,-91.72C1425.58,-91.72 1258.15,-91.72 1258.15,-91.72 1252.15,-91.72 1246.15,-85.72 1246.15,-79.72 1246.15,-79.72 1246.15,-56 1246.15,-56 1246.15,-50 1252.15,-44 1258.15,-44 1258.15,-44 1425.58,-44 1425.58,-44 1431.58,-44 1437.58,-50 1437.58,-56 1437.58,-56 1437.58,-79.72 1437.58,-79.72 1437.58,-85.72 1431.58,-91.72 1425.58,-91.72"/>
<text xml:space="preserve" text-anchor="start" x="1307.37" y="-72.91" font-family="Helvetica,sans-Serif" font-weight="bold" font-size="11.00" fill="#1c1917">④ SPV Proof</text>
<text xml:space="preserve" text-anchor="start" x="1285.62" y="-63.81" font-family="Helvetica,sans-Serif" font-size="9.00" fill="#57534e">Relayer polls Bitcoin blocks</text>
<text xml:space="preserve" text-anchor="start" x="1261.99" y="-54.81" font-family="Helvetica,sans-Serif" font-size="9.00" fill="#a8a29e">Returns headers + merkle path + raw tx</text>
</g>
<!-- btc_confirm&#45;&gt;s4 -->
<g id="edge4" class="edge">
<title>btc_confirm&#45;&gt;s4</title>
<path fill="none" stroke="#16a34a" stroke-width="2" d="M1139.8,-67.86C1139.8,-67.86 1233.94,-67.86 1233.94,-67.86"/>
<polygon fill="#16a34a" stroke="#16a34a" stroke-width="2" points="1233.94,-70.84 1242.44,-67.86 1233.94,-64.89 1233.94,-70.84"/>
<text xml:space="preserve" text-anchor="middle" x="1191.78" y="-69.61" font-family="Helvetica,sans-Serif" font-size="10.00" fill="#16a34a">confirmed</text>
</g>
<!-- s5 -->
<g id="node6" class="node">
<title>s5</title>
<path fill="#f0f9ff" stroke="#0284c7" stroke-width="1.6" d="M1854.76,-91.72C1854.76,-91.72 1673.08,-91.72 1673.08,-91.72 1667.08,-91.72 1661.08,-85.72 1661.08,-79.72 1661.08,-79.72 1661.08,-56 1661.08,-56 1661.08,-50 1667.08,-44 1673.08,-44 1673.08,-44 1854.76,-44 1854.76,-44 1860.76,-44 1866.76,-50 1866.76,-56 1866.76,-56 1866.76,-79.72 1866.76,-79.72 1866.76,-85.72 1860.76,-91.72 1854.76,-91.72"/>
<text xml:space="preserve" text-anchor="start" x="1706.55" y="-72.91" font-family="Helvetica,sans-Serif" font-weight="bold" font-size="11.00" fill="#1c1917">⑤ ZK Proof (browser)</text>
<text xml:space="preserve" text-anchor="start" x="1697.92" y="-63.81" font-family="Helvetica,sans-Serif" font-size="9.00" fill="#57534e">snarkjs · Groth16 · deposit circuit</text>
<text xml:space="preserve" text-anchor="start" x="1676.92" y="-54.81" font-family="Helvetica,sans-Serif" font-size="9.00" fill="#a8a29e">Inputs: collateral · secret · nonce · txid_lo/hi</text>
</g>
<!-- s4&#45;&gt;s5 -->
<g id="edge6" class="edge">
<title>s4&#45;&gt;s5</title>
<path fill="none" stroke="#7c3aed" stroke-width="1.4" d="M1438.16,-67.86C1438.16,-67.86 1649.67,-67.86 1649.67,-67.86"/>
<polygon fill="#7c3aed" stroke="#7c3aed" stroke-width="1.4" points="1649.67,-70.84 1658.17,-67.86 1649.67,-64.89 1649.67,-70.84"/>
<text xml:space="preserve" text-anchor="middle" x="1549.33" y="-71.11" font-family="Helvetica,sans-Serif" font-size="10.00" fill="#7c3aed">rawTxNoWitness → txid_lo / txid_hi</text>
</g>
<!-- s5b -->
<g id="node7" class="node">
<title>s5b</title>
<polygon fill="#f0f9ff" stroke="#0284c7" stroke-width="1.6" points="2215.69,-135.72 2038.51,-135.72 2038.51,-88 2221.69,-88 2221.69,-129.72 2215.69,-135.72"/>
<polyline fill="none" stroke="#0284c7" stroke-width="1.6" points="2215.69,-135.72 2215.69,-129.72"/>
<polyline fill="none" stroke="#0284c7" stroke-width="1.6" points="2221.69,-129.72 2215.69,-129.72"/>
<text xml:space="preserve" text-anchor="start" x="2096.35" y="-116.91" font-family="Helvetica,sans-Serif" font-weight="bold" font-size="11.00" fill="#1c1917">Commitment</text>
<text xml:space="preserve" text-anchor="start" x="2054.35" y="-107.81" font-family="Helvetica,sans-Serif" font-size="9.00" fill="#57534e">Poseidon(collateral, 0, secret, nonce)</text>
<text xml:space="preserve" text-anchor="start" x="2077.98" y="-98.81" font-family="Helvetica,sans-Serif" font-size="9.00" fill="#a8a29e">Never leaves the browser</text>
</g>
<!-- s5&#45;&gt;s5b -->
<g id="edge7" class="edge">
<title>s5&#45;&gt;s5b</title>
<path fill="none" stroke="#0284c7" stroke-width="1.4" stroke-dasharray="5,2" d="M1867.37,-74.57C1975.64,-74.57 2130.05,-74.57 2130.05,-74.57 2130.05,-74.57 2130.05,-77 2130.05,-77"/>
<polygon fill="#0284c7" stroke="#0284c7" stroke-width="1.4" points="2127.08,-77 2130.05,-85.5 2133.03,-77 2127.08,-77"/>
</g>
<!-- s6 -->
<g id="node8" class="node">
<title>s6</title>
<path fill="#eff6ff" stroke="#2563eb" stroke-width="1.6" d="M2223.94,-47.72C2223.94,-47.72 2036.26,-47.72 2036.26,-47.72 2030.26,-47.72 2024.26,-41.72 2024.26,-35.72 2024.26,-35.72 2024.26,-12 2024.26,-12 2024.26,-6 2030.26,0 2036.26,0 2036.26,0 2223.94,0 2223.94,0 2229.94,0 2235.94,-6 2235.94,-12 2235.94,-12 2235.94,-35.72 2235.94,-35.72 2235.94,-41.72 2229.94,-47.72 2223.94,-47.72"/>
<text xml:space="preserve" text-anchor="start" x="2075.35" y="-28.91" font-family="Helvetica,sans-Serif" font-weight="bold" font-size="11.00" fill="#1c1917">⑥ deposit() on&#45;chain</text>
<text xml:space="preserve" text-anchor="start" x="2078.73" y="-19.81" font-family="Helvetica,sans-Serif" font-size="9.00" fill="#57534e">commitment&#45;tree contract</text>
<text xml:space="preserve" text-anchor="start" x="2040.1" y="-10.81" font-family="Helvetica,sans-Serif" font-size="9.00" fill="#a8a29e">Verifies SPV + ZK proof · emits DepositEvent</text>
</g>
<!-- s5&#45;&gt;s6 -->
<g id="edge8" class="edge">
<title>s5&#45;&gt;s6</title>
<path fill="none" stroke="#0284c7" stroke-width="2" d="M1867.2,-61.15C1942.37,-61.15 2031.05,-61.15 2031.05,-61.15 2031.05,-61.15 2031.05,-59.63 2031.05,-59.63"/>
<polygon fill="#0284c7" stroke="#0284c7" stroke-width="2" points="2034.03,-59.63 2031.05,-51.13 2028.08,-59.63 2034.03,-59.63"/>
<text xml:space="preserve" text-anchor="middle" x="1945.51" y="-51.61" font-family="Helvetica,sans-Serif" font-size="10.00" fill="#0284c7">proof + publicSignals</text>
</g>
<!-- s7 -->
<g id="node9" class="node">
<title>s7</title>
<path fill="#faf5ff" stroke="#7c3aed" stroke-width="1.6" d="M2560.87,-47.72C2560.87,-47.72 2386.69,-47.72 2386.69,-47.72 2380.69,-47.72 2374.69,-41.72 2374.69,-35.72 2374.69,-35.72 2374.69,-12 2374.69,-12 2374.69,-6 2380.69,0 2386.69,0 2386.69,0 2560.87,0 2560.87,0 2566.87,0 2572.87,-6 2572.87,-12 2572.87,-12 2572.87,-35.72 2572.87,-35.72 2572.87,-41.72 2566.87,-47.72 2560.87,-47.72"/>
<text xml:space="preserve" text-anchor="start" x="2412.28" y="-28.91" font-family="Helvetica,sans-Serif" font-weight="bold" font-size="11.00" fill="#1c1917">⑦ insert_commitment()</text>
<text xml:space="preserve" text-anchor="start" x="2398.03" y="-19.81" font-family="Helvetica,sans-Serif" font-size="9.00" fill="#57534e">Admin&#45;signed (Phase 1 trusted relay)</text>
<text xml:space="preserve" text-anchor="start" x="2390.53" y="-10.81" font-family="Helvetica,sans-Serif" font-size="9.00" fill="#a8a29e">Inserts commitment · updates Merkle root</text>
</g>
<!-- s6&#45;&gt;s7 -->
<g id="edge9" class="edge">
<title>s6&#45;&gt;s7</title>
<path fill="none" stroke="#2563eb" stroke-width="2" d="M2236.49,-23.86C2236.49,-23.86 2362.52,-23.86 2362.52,-23.86"/>
<polygon fill="#2563eb" stroke="#2563eb" stroke-width="2" points="2362.52,-26.84 2371.02,-23.86 2362.52,-20.89 2362.52,-26.84"/>
<text xml:space="preserve" text-anchor="middle" x="2305.32" y="-25.61" font-family="Helvetica,sans-Serif" font-size="10.00" fill="#57534e">commitment hex</text>
</g>
<!-- done -->
<g id="node10" class="node">
<title>done</title>
<path fill="#f0fdf4" stroke="#16a34a" stroke-width="1.6" d="M2864.05,-47.72C2864.05,-47.72 2760.37,-47.72 2760.37,-47.72 2754.37,-47.72 2748.37,-41.72 2748.37,-35.72 2748.37,-35.72 2748.37,-12 2748.37,-12 2748.37,-6 2754.37,0 2760.37,0 2760.37,0 2864.05,0 2864.05,0 2870.05,0 2876.05,-6 2876.05,-12 2876.05,-12 2876.05,-35.72 2876.05,-35.72 2876.05,-41.72 2870.05,-47.72 2864.05,-47.72"/>
<text xml:space="preserve" text-anchor="start" x="2772.84" y="-28.91" font-family="Helvetica,sans-Serif" font-weight="bold" font-size="11.00" fill="#1c1917">Position Active</text>
<text xml:space="preserve" text-anchor="start" x="2768.71" y="-19.81" font-family="Helvetica,sans-Serif" font-size="9.00" fill="#57534e">status: active · debt: 0</text>
<text xml:space="preserve" text-anchor="start" x="2764.21" y="-10.81" font-family="Helvetica,sans-Serif" font-size="9.00" fill="#a8a29e">Ready to borrow USDC</text>
</g>
<!-- s7&#45;&gt;done -->
<g id="edge10" class="edge">
<title>s7&#45;&gt;done</title>
<path fill="none" stroke="#e3a646" stroke-width="2.5" d="M2573.49,-23.86C2573.49,-23.86 2735.33,-23.86 2735.33,-23.86"/>
<polygon fill="#e3a646" stroke="#e3a646" stroke-width="2.5" points="2735.33,-26.84 2743.83,-23.86 2735.33,-20.89 2735.33,-26.84"/>
<text xml:space="preserve" text-anchor="middle" x="2660.62" y="-25.61" font-family="Helvetica,sans-Serif" font-size="10.00" fill="#57534e">new Merkle root on&#45;chain</text>
</g>
</g>
</svg>
