<?xml version="1.0" encoding="UTF-8" standalone="no"?>
<!DOCTYPE svg PUBLIC "-//W3C//DTD SVG 1.1//EN"
 "http://www.w3.org/Graphics/SVG/1.1/DTD/svg11.dtd">
<!-- Generated by graphviz version 15.0.0 (20260523.1842)
 -->
<!-- Title: borrow&#45;repay&#45;flow Pages: 1 -->
<svg width="1672pt" height="1650pt"
 viewBox="0.00 0.00 1672.00 1650.00" xmlns="http://www.w3.org/2000/svg" xmlns:xlink="http://www.w3.org/1999/xlink">
<g id="graph0" class="graph" transform="scale(1.66783 1.66783) rotate(0) translate(50.4 938.91)">
<title>borrow&#45;repay&#45;flow</title>
<text xml:space="preserve" text-anchor="start" x="53" y="-873.16" font-family="Helvetica,sans-Serif" font-weight="bold" font-size="13.00" fill="#1c1917">Writz Protocol — Borrow / Repay Flow</text>
<text xml:space="preserve" text-anchor="start" x="8" y="-863.96" font-family="Helvetica,sans-Serif" font-size="9.00" fill="#57534e">Private ZK proof · collateral ratio enforced on&#45;chain · nonce rotates on every action</text>
<g id="clust1" class="cluster">
<title>cluster_borrow</title>
<path fill="none" stroke="#2563eb" stroke-width="2.5" d="M20,-96.72C20,-96.72 266,-96.72 266,-96.72 272,-96.72 278,-102.72 278,-108.72 278,-108.72 278,-584.1 278,-584.1 278,-590.1 272,-596.1 266,-596.1 266,-596.1 20,-596.1 20,-596.1 14,-596.1 8,-590.1 8,-584.1 8,-584.1 8,-108.72 8,-108.72 8,-102.72 14,-96.72 20,-96.72"/>
<text xml:space="preserve" text-anchor="start" x="44.5" y="-581.7" font-family="Helvetica,sans-Serif" font-weight="bold" font-size="12.00" fill="#2563eb">Borrow Path</text>
<text xml:space="preserve" text-anchor="start" x="16" y="-572.55" font-family="Helvetica,sans-Serif" font-size="9.00" fill="#57534e">is_borrow = 1 · delta = +amount</text>
</g>
<g id="clust2" class="cluster">
<title>cluster_repay</title>
<path fill="none" stroke="#2563eb" stroke-width="2.5" d="M638,-96.72C638,-96.72 882,-96.72 882,-96.72 888,-96.72 894,-102.72 894,-108.72 894,-108.72 894,-437.13 894,-437.13 894,-443.13 888,-449.13 882,-449.13 882,-449.13 638,-449.13 638,-449.13 632,-449.13 626,-443.13 626,-437.13 626,-437.13 626,-108.72 626,-108.72 626,-102.72 632,-96.72 638,-96.72"/>
<text xml:space="preserve" text-anchor="start" x="697" y="-434.73" font-family="Helvetica,sans-Serif" font-weight="bold" font-size="12.00" fill="#2563eb">Repay Path</text>
<text xml:space="preserve" text-anchor="start" x="634" y="-425.58" font-family="Helvetica,sans-Serif" font-size="9.00" fill="#57534e">is_borrow = 0 · delta = FIELD_PRIME − amount</text>
</g>
<!-- position -->
<g id="node1" class="node">
<title>position</title>
<path fill="#ecfdf5" stroke="#059669" stroke-width="1.6" d="M428.34,-858.51C428.34,-858.51 261.66,-858.51 261.66,-858.51 255.66,-858.51 249.66,-852.51 249.66,-846.51 249.66,-846.51 249.66,-822.79 249.66,-822.79 249.66,-816.79 255.66,-810.79 261.66,-810.79 261.66,-810.79 428.34,-810.79 428.34,-810.79 434.34,-810.79 440.34,-816.79 440.34,-822.79 440.34,-822.79 440.34,-846.51 440.34,-846.51 440.34,-852.51 434.34,-858.51 428.34,-858.51"/>
<text xml:space="preserve" text-anchor="start" x="287.62" y="-839.7" font-family="Helvetica,sans-Serif" font-weight="bold" font-size="11.00" fill="#1c1917">Active Position (local)</text>
<text xml:space="preserve" text-anchor="start" x="282" y="-830.6" font-family="Helvetica,sans-Serif" font-size="9.00" fill="#57534e">collateral · debt · secret · nonce</text>
<text xml:space="preserve" text-anchor="start" x="265.5" y="-821.6" font-family="Helvetica,sans-Serif" font-size="9.00" fill="#a8a29e">Stored in localStorage · never on&#45;chain</text>
</g>
<!-- action -->
<g id="node2" class="node">
<title>action</title>
<path fill="#fffbeb" stroke="#d97706" stroke-width="1.6" d="M333.49,-740.4C333.49,-740.4 194.33,-699.46 194.33,-699.46 188.58,-697.76 188.58,-694.38 194.33,-692.68 194.33,-692.68 333.49,-651.74 333.49,-651.74 339.24,-650.04 350.76,-650.04 356.51,-651.74 356.51,-651.74 495.67,-692.68 495.67,-692.68 501.42,-694.38 501.42,-697.76 495.67,-699.46 495.67,-699.46 356.51,-740.4 356.51,-740.4 350.76,-742.1 339.24,-742.1 333.49,-740.4"/>
<text xml:space="preserve" text-anchor="start" x="314.25" y="-701.12" font-family="Helvetica,sans-Serif" font-weight="bold" font-size="11.00" fill="#1c1917">User Action</text>
<text xml:space="preserve" text-anchor="start" x="279.75" y="-692.02" font-family="Helvetica,sans-Serif" font-size="9.00" fill="#57534e">Borrow USDC &#160;or &#160;Repay USDC</text>
<text xml:space="preserve" text-anchor="start" x="283.5" y="-683.02" font-family="Helvetica,sans-Serif" font-size="9.00" fill="#a8a29e">Entered in PositionDashboard</text>
</g>
<!-- position&#45;&gt;action -->
<g id="edge1" class="edge">
<title>position&#45;&gt;action</title>
<path fill="none" stroke="#a8a29e" stroke-width="1.4" d="M345,-810.17C345,-794.98 345,-774.5 345,-755.14"/>
<polygon fill="#a8a29e" stroke="#a8a29e" stroke-width="1.4" points="347.98,-755.16 345,-746.66 342.03,-755.16 347.98,-755.16"/>
</g>
<!-- b_ratio -->
<g id="node3" class="node">
<title>b_ratio</title>
<path fill="#fffbeb" stroke="#d97706" stroke-width="1.6" d="M248.47,-549.1C248.47,-549.1 37.54,-549.1 37.54,-549.1 31.54,-549.1 25.53,-543.1 25.53,-537.1 25.53,-537.1 25.53,-513.38 25.53,-513.38 25.53,-507.38 31.53,-501.38 37.53,-501.38 37.53,-501.38 248.47,-501.38 248.47,-501.38 254.47,-501.38 260.47,-507.38 260.47,-513.38 260.47,-513.38 260.47,-537.1 260.47,-537.1 260.47,-543.1 254.47,-549.1 248.47,-549.1"/>
<text xml:space="preserve" text-anchor="start" x="84.5" y="-530.29" font-family="Helvetica,sans-Serif" font-weight="bold" font-size="11.00" fill="#1c1917">Collateral Ratio Check</text>
<text xml:space="preserve" text-anchor="start" x="41.38" y="-521.19" font-family="Helvetica,sans-Serif" font-size="9.00" fill="#57534e">collateral × BTC_PRICE / (debt + amount) ≥ 150%</text>
<text xml:space="preserve" text-anchor="start" x="79.62" y="-512.19" font-family="Helvetica,sans-Serif" font-size="9.00" fill="#a8a29e">Enforced by ZK circuit on&#45;chain</text>
</g>
<!-- action&#45;&gt;b_ratio -->
<g id="edge2" class="edge">
<title>action&#45;&gt;b_ratio</title>
<path fill="none" stroke="#2563eb" stroke-width="2" d="M303.15,-660.09C266.71,-629.64 214.42,-585.93 179.62,-556.85"/>
<polygon fill="#2563eb" stroke="#2563eb" stroke-width="2" points="181.92,-554.89 173.49,-551.73 178.11,-559.46 181.92,-554.89"/>
<text xml:space="preserve" text-anchor="middle" x="258.62" y="-605.85" font-family="Helvetica,sans-Serif" font-size="10.00" fill="#2563eb">borrow</text>
</g>
<!-- r_prove -->
<g id="node7" class="node">
<title>r_prove</title>
<path fill="#f0f9ff" stroke="#0284c7" stroke-width="1.6" d="M859.34,-402.13C859.34,-402.13 656.66,-402.13 656.66,-402.13 650.66,-402.13 644.66,-396.13 644.66,-390.13 644.66,-390.13 644.66,-366.41 644.66,-366.41 644.66,-360.41 650.66,-354.41 656.66,-354.41 656.66,-354.41 859.34,-354.41 859.34,-354.41 865.34,-354.41 871.34,-360.41 871.34,-366.41 871.34,-366.41 871.34,-390.13 871.34,-390.13 871.34,-396.13 865.34,-402.13 859.34,-402.13"/>
<text xml:space="preserve" text-anchor="start" x="707.75" y="-383.32" font-family="Helvetica,sans-Serif" font-weight="bold" font-size="11.00" fill="#1c1917">ZK Proof (browser)</text>
<text xml:space="preserve" text-anchor="start" x="687.5" y="-374.22" font-family="Helvetica,sans-Serif" font-size="9.00" fill="#57534e">borrow_repay circuit · is_borrow=0</text>
<text xml:space="preserve" text-anchor="start" x="660.5" y="-365.22" font-family="Helvetica,sans-Serif" font-size="9.00" fill="#a8a29e">delta = (p − repayAmount) % p &#160;← field negation</text>
</g>
<!-- action&#45;&gt;r_prove -->
<g id="edge3" class="edge">
<title>action&#45;&gt;r_prove</title>
<path fill="none" stroke="#dc2626" stroke-width="2" d="M389.59,-660.97C470.67,-598.98 640.97,-468.75 718.3,-409.63"/>
<polygon fill="#dc2626" stroke="#dc2626" stroke-width="2" points="719.91,-412.14 724.85,-404.62 716.29,-407.42 719.91,-412.14"/>
<text xml:space="preserve" text-anchor="middle" x="604.56" y="-521.37" font-family="Helvetica,sans-Serif" font-size="10.00" fill="#dc2626">repay</text>
</g>
<!-- b_prove -->
<g id="node4" class="node">
<title>b_prove</title>
<path fill="#f0f9ff" stroke="#0284c7" stroke-width="1.6" d="M231.09,-402.13C231.09,-402.13 56.91,-402.13 56.91,-402.13 50.91,-402.13 44.91,-396.13 44.91,-390.13 44.91,-390.13 44.91,-366.41 44.91,-366.41 44.91,-360.41 50.91,-354.41 56.91,-354.41 56.91,-354.41 231.09,-354.41 231.09,-354.41 237.09,-354.41 243.09,-360.41 243.09,-366.41 243.09,-366.41 243.09,-390.13 243.09,-390.13 243.09,-396.13 237.09,-402.13 231.09,-402.13"/>
<text xml:space="preserve" text-anchor="start" x="93.75" y="-383.32" font-family="Helvetica,sans-Serif" font-weight="bold" font-size="11.00" fill="#1c1917">ZK Proof (browser)</text>
<text xml:space="preserve" text-anchor="start" x="73.5" y="-374.22" font-family="Helvetica,sans-Serif" font-size="9.00" fill="#57534e">borrow_repay circuit · is_borrow=1</text>
<text xml:space="preserve" text-anchor="start" x="60.75" y="-365.22" font-family="Helvetica,sans-Serif" font-size="9.00" fill="#a8a29e">Proves ratio · new commitment · new root</text>
</g>
<!-- b_ratio&#45;&gt;b_prove -->
<g id="edge4" class="edge">
<title>b_ratio&#45;&gt;b_prove</title>
<path fill="none" stroke="#16a34a" stroke-width="1.4" d="M143.16,-500.63C143.33,-476.93 143.58,-440.2 143.76,-413.35"/>
<polygon fill="#16a34a" stroke="#16a34a" stroke-width="1.4" points="146.74,-413.51 143.82,-404.99 140.79,-413.47 146.74,-413.51"/>
<text xml:space="preserve" text-anchor="middle" x="159.19" y="-458.88" font-family="Helvetica,sans-Serif" font-size="10.00" fill="#16a34a">passes</text>
</g>
<!-- b_tx -->
<g id="node5" class="node">
<title>b_tx</title>
<path fill="#eff6ff" stroke="#2563eb" stroke-width="1.6" d="M247.09,-277.16C247.09,-277.16 42.91,-277.16 42.91,-277.16 36.91,-277.16 30.91,-271.16 30.91,-265.16 30.91,-265.16 30.91,-241.44 30.91,-241.44 30.91,-235.44 36.91,-229.44 42.91,-229.44 42.91,-229.44 247.09,-229.44 247.09,-229.44 253.09,-229.44 259.09,-235.44 259.09,-241.44 259.09,-241.44 259.09,-265.16 259.09,-265.16 259.09,-271.16 253.09,-277.16 247.09,-277.16"/>
<text xml:space="preserve" text-anchor="start" x="98.12" y="-258.35" font-family="Helvetica,sans-Serif" font-weight="bold" font-size="11.00" fill="#1c1917">borrow() on&#45;chain</text>
<text xml:space="preserve" text-anchor="start" x="93.62" y="-249.25" font-family="Helvetica,sans-Serif" font-size="9.00" fill="#57534e">commitment&#45;tree contract</text>
<text xml:space="preserve" text-anchor="start" x="46.75" y="-240.25" font-family="Helvetica,sans-Serif" font-size="9.00" fill="#a8a29e">Verifies proof · updates root · transfers USDC out</text>
</g>
<!-- b_prove&#45;&gt;b_tx -->
<g id="edge5" class="edge">
<title>b_prove&#45;&gt;b_tx</title>
<path fill="none" stroke="#0284c7" stroke-width="2" d="M144.19,-353.85C144.34,-335.56 144.55,-309.86 144.72,-289.15"/>
<polygon fill="#0284c7" stroke="#0284c7" stroke-width="2" points="147.69,-289.18 144.79,-280.66 141.74,-289.13 147.69,-289.18"/>
<text xml:space="preserve" text-anchor="middle" x="176.78" y="-311.91" font-family="Helvetica,sans-Serif" font-size="10.00" fill="#0284c7">proof + signals</text>
</g>
<!-- b_usdc -->
<g id="node6" class="node">
<title>b_usdc</title>
<path fill="#f0fdf4" stroke="#16a34a" stroke-width="1.6" d="M208.47,-162.44C208.47,-162.44 81.53,-162.44 81.53,-162.44 75.53,-162.44 69.53,-156.44 69.53,-150.44 69.53,-150.44 69.53,-126.72 69.53,-126.72 69.53,-120.72 75.53,-114.72 81.53,-114.72 81.53,-114.72 208.47,-114.72 208.47,-114.72 214.47,-114.72 220.47,-120.72 220.47,-126.72 220.47,-126.72 220.47,-150.44 220.47,-150.44 220.47,-156.44 214.47,-162.44 208.47,-162.44"/>
<text xml:space="preserve" text-anchor="start" x="90.25" y="-143.63" font-family="Helvetica,sans-Serif" font-weight="bold" font-size="11.00" fill="#1c1917">USDC → User Wallet</text>
<text xml:space="preserve" text-anchor="start" x="101.12" y="-134.53" font-family="Helvetica,sans-Serif" font-size="9.00" fill="#57534e">Stellar USDC transfer</text>
<text xml:space="preserve" text-anchor="start" x="85.38" y="-125.53" font-family="Helvetica,sans-Serif" font-size="9.00" fill="#a8a29e">private&#45;lend pool → borrower</text>
</g>
<!-- b_tx&#45;&gt;b_usdc -->
<g id="edge6" class="edge">
<title>b_tx&#45;&gt;b_usdc</title>
<path fill="none" stroke="#16a34a" stroke-width="2" d="M145,-228.67C145,-212.96 145,-192.07 145,-174.46"/>
<polygon fill="#16a34a" stroke="#16a34a" stroke-width="2" points="147.98,-174.71 145,-166.21 142.03,-174.71 147.98,-174.71"/>
</g>
<!-- nonce_rotate -->
<g id="node10" class="node">
<title>nonce_rotate</title>
<path fill="#f0f9ff" stroke="#0284c7" stroke-width="1.6" d="M596.09,-162.44C596.09,-162.44 307.91,-162.44 307.91,-162.44 301.91,-162.44 295.91,-156.44 295.91,-150.44 295.91,-150.44 295.91,-126.72 295.91,-126.72 295.91,-120.72 301.91,-114.72 307.91,-114.72 307.91,-114.72 596.09,-114.72 596.09,-114.72 602.09,-114.72 608.09,-120.72 608.09,-126.72 608.09,-126.72 608.09,-150.44 608.09,-150.44 608.09,-156.44 602.09,-162.44 596.09,-162.44"/>
<text xml:space="preserve" text-anchor="start" x="411.12" y="-143.63" font-family="Helvetica,sans-Serif" font-weight="bold" font-size="11.00" fill="#1c1917">Nonce Rotation</text>
<text xml:space="preserve" text-anchor="start" x="379.25" y="-134.53" font-family="Helvetica,sans-Serif" font-size="9.00" fill="#57534e">newNonce = randomFieldElement()</text>
<text xml:space="preserve" text-anchor="start" x="311.75" y="-125.53" font-family="Helvetica,sans-Serif" font-size="9.00" fill="#a8a29e">new commitment = Poseidon(collateral, newDebt, secret, newNonce)</text>
</g>
<!-- b_tx&#45;&gt;nonce_rotate -->
<g id="edge7" class="edge">
<title>b_tx&#45;&gt;nonce_rotate</title>
<path fill="none" stroke="#2563eb" stroke-width="1.4" d="M209.36,-228.67C258.58,-210.6 326.52,-185.65 377.99,-166.75"/>
<polygon fill="#2563eb" stroke="#2563eb" stroke-width="1.4" points="378.78,-169.63 385.74,-163.91 376.73,-164.05 378.78,-169.63"/>
</g>
<!-- r_tx -->
<g id="node8" class="node">
<title>r_tx</title>
<path fill="#eff6ff" stroke="#2563eb" stroke-width="1.6" d="M864.34,-277.16C864.34,-277.16 655.66,-277.16 655.66,-277.16 649.66,-277.16 643.66,-271.16 643.66,-265.16 643.66,-265.16 643.66,-241.44 643.66,-241.44 643.66,-235.44 649.66,-229.44 655.66,-229.44 655.66,-229.44 864.34,-229.44 864.34,-229.44 870.34,-229.44 876.34,-235.44 876.34,-241.44 876.34,-241.44 876.34,-265.16 876.34,-265.16 876.34,-271.16 870.34,-277.16 864.34,-277.16"/>
<text xml:space="preserve" text-anchor="start" x="717.25" y="-258.35" font-family="Helvetica,sans-Serif" font-weight="bold" font-size="11.00" fill="#1c1917">repay() on&#45;chain</text>
<text xml:space="preserve" text-anchor="start" x="708.62" y="-249.25" font-family="Helvetica,sans-Serif" font-size="9.00" fill="#57534e">commitment&#45;tree contract</text>
<text xml:space="preserve" text-anchor="start" x="659.5" y="-240.25" font-family="Helvetica,sans-Serif" font-size="9.00" fill="#a8a29e">Verifies proof · nullifies old commitment · USDC in</text>
</g>
<!-- r_prove&#45;&gt;r_tx -->
<g id="edge8" class="edge">
<title>r_prove&#45;&gt;r_tx</title>
<path fill="none" stroke="#0284c7" stroke-width="2" d="M758.38,-353.85C758.68,-335.56 759.1,-309.86 759.43,-289.15"/>
<polygon fill="#0284c7" stroke="#0284c7" stroke-width="2" points="762.41,-289.21 759.57,-280.66 756.46,-289.11 762.41,-289.21"/>
<text xml:space="preserve" text-anchor="middle" x="791.31" y="-311.91" font-family="Helvetica,sans-Serif" font-size="10.00" fill="#0284c7">proof + signals</text>
</g>
<!-- r_usdc -->
<g id="node9" class="node">
<title>r_usdc</title>
<path fill="#fef2f2" stroke="#dc2626" stroke-width="1.6" d="M823.47,-162.44C823.47,-162.44 696.53,-162.44 696.53,-162.44 690.53,-162.44 684.53,-156.44 684.53,-150.44 684.53,-150.44 684.53,-126.72 684.53,-126.72 684.53,-120.72 690.53,-114.72 696.53,-114.72 696.53,-114.72 823.47,-114.72 823.47,-114.72 829.47,-114.72 835.47,-120.72 835.47,-126.72 835.47,-126.72 835.47,-150.44 835.47,-150.44 835.47,-156.44 829.47,-162.44 823.47,-162.44"/>
<text xml:space="preserve" text-anchor="start" x="705.25" y="-143.63" font-family="Helvetica,sans-Serif" font-weight="bold" font-size="11.00" fill="#1c1917">USDC ← User Wallet</text>
<text xml:space="preserve" text-anchor="start" x="716.12" y="-134.53" font-family="Helvetica,sans-Serif" font-size="9.00" fill="#57534e">Stellar USDC transfer</text>
<text xml:space="preserve" text-anchor="start" x="700.38" y="-125.53" font-family="Helvetica,sans-Serif" font-size="9.00" fill="#a8a29e">borrower → private&#45;lend pool</text>
</g>
<!-- r_tx&#45;&gt;r_usdc -->
<g id="edge9" class="edge">
<title>r_tx&#45;&gt;r_usdc</title>
<path fill="none" stroke="#dc2626" stroke-width="2" d="M760,-228.67C760,-212.96 760,-192.07 760,-174.46"/>
<polygon fill="#dc2626" stroke="#dc2626" stroke-width="2" points="762.98,-174.71 760,-166.21 757.03,-174.71 762.98,-174.71"/>
</g>
<!-- r_tx&#45;&gt;nonce_rotate -->
<g id="edge10" class="edge">
<title>r_tx&#45;&gt;nonce_rotate</title>
<path fill="none" stroke="#2563eb" stroke-width="1.4" d="M695.43,-228.67C646.05,-210.6 577.89,-185.65 526.25,-166.75"/>
<polygon fill="#2563eb" stroke="#2563eb" stroke-width="1.4" points="527.48,-164.03 518.47,-163.91 525.43,-169.62 527.48,-164.03"/>
</g>
<!-- save -->
<g id="node11" class="node">
<title>save</title>
<path fill="#ecfdf5" stroke="#059669" stroke-width="1.6" d="M537.22,-47.72C537.22,-47.72 366.78,-47.72 366.78,-47.72 360.78,-47.72 354.78,-41.72 354.78,-35.72 354.78,-35.72 354.78,-12 354.78,-12 354.78,-6 360.78,0 366.78,0 366.78,0 537.22,0 537.22,0 543.22,0 549.22,-6 549.22,-12 549.22,-12 549.22,-35.72 549.22,-35.72 549.22,-41.72 543.22,-47.72 537.22,-47.72"/>
<text xml:space="preserve" text-anchor="start" x="394.25" y="-28.91" font-family="Helvetica,sans-Serif" font-weight="bold" font-size="11.00" fill="#1c1917">Update Position Store</text>
<text xml:space="preserve" text-anchor="start" x="370.62" y="-19.81" font-family="Helvetica,sans-Serif" font-size="9.00" fill="#57534e">new commitment · nullifier · nonce · debt</text>
<text xml:space="preserve" text-anchor="start" x="396.12" y="-10.81" font-family="Helvetica,sans-Serif" font-size="9.00" fill="#a8a29e">localStorage — device only</text>
</g>
<!-- nonce_rotate&#45;&gt;save -->
<g id="edge11" class="edge">
<title>nonce_rotate&#45;&gt;save</title>
<path fill="none" stroke="#e3a646" stroke-width="2" d="M452,-113.95C452,-98.24 452,-77.35 452,-59.74"/>
<polygon fill="#e3a646" stroke="#e3a646" stroke-width="2" points="454.98,-59.99 452,-51.49 449.03,-59.99 454.98,-59.99"/>
</g>
</g>
</svg>
