<?xml version="1.0" encoding="UTF-8" standalone="no"?>
<!DOCTYPE svg PUBLIC "-//W3C//DTD SVG 1.1//EN"
 "http://www.w3.org/Graphics/SVG/1.1/DTD/svg11.dtd">
<!-- Generated by graphviz version 15.0.0 (20260523.1842)
 -->
<!-- Title: btc&#45;release&#45;flow Pages: 1 -->
<svg width="2700pt" height="573pt"
 viewBox="0.00 0.00 2700.00 573.00" xmlns="http://www.w3.org/2000/svg" xmlns:xlink="http://www.w3.org/1999/xlink">
<g id="graph0" class="graph" transform="scale(1.27671 1.27671) rotate(0) translate(50.4 398.51)">
<title>btc&#45;release&#45;flow</title>
<text xml:space="preserve" text-anchor="start" x="50.38" y="-332.76" font-family="Helvetica,sans-Serif" font-weight="bold" font-size="13.00" fill="#1c1917">Writz Protocol — BTC Release Flow (Path A)</text>
<text xml:space="preserve" text-anchor="start" x="8" y="-323.56" font-family="Helvetica,sans-Serif" font-size="9.00" fill="#57534e">After full repay · cooperative co&#45;sign · witness: [user_sig, protocol_sig, 0x01, redeemScript]</text>
<!-- prereq -->
<g id="node1" class="node">
<title>prereq</title>
<path fill="#f0fdf4" stroke="#16a34a" stroke-width="1.6" d="M164.43,-81.72C164.43,-81.72 12,-81.72 12,-81.72 6,-81.72 0,-75.72 0,-69.72 0,-69.72 0,-46 0,-46 0,-40 6,-34 12,-34 12,-34 164.43,-34 164.43,-34 170.43,-34 176.43,-40 176.43,-46 176.43,-46 176.43,-69.72 176.43,-69.72 176.43,-75.72 170.43,-81.72 164.43,-81.72"/>
<text xml:space="preserve" text-anchor="start" x="56.34" y="-62.91" font-family="Helvetica,sans-Serif" font-weight="bold" font-size="11.00" fill="#1c1917">Prerequisite</text>
<text xml:space="preserve" text-anchor="start" x="40.59" y="-53.81" font-family="Helvetica,sans-Serif" font-size="9.00" fill="#57534e">position.status = closed</text>
<text xml:space="preserve" text-anchor="start" x="15.84" y="-44.81" font-family="Helvetica,sans-Serif" font-size="9.00" fill="#a8a29e">Full debt repaid · commitment spent</text>
</g>
<!-- build_psbt -->
<g id="node2" class="node">
<title>build_psbt</title>
<path fill="#ecfdf5" stroke="#059669" stroke-width="1.6" d="M436.36,-81.72C436.36,-81.72 255.43,-81.72 255.43,-81.72 249.43,-81.72 243.43,-75.72 243.43,-69.72 243.43,-69.72 243.43,-46 243.43,-46 243.43,-40 249.43,-34 255.43,-34 255.43,-34 436.36,-34 436.36,-34 442.36,-34 448.36,-40 448.36,-46 448.36,-46 448.36,-69.72 448.36,-69.72 448.36,-75.72 442.36,-81.72 436.36,-81.72"/>
<text xml:space="preserve" text-anchor="start" x="293.39" y="-62.91" font-family="Helvetica,sans-Serif" font-weight="bold" font-size="11.00" fill="#1c1917">Build Release PSBT</text>
<text xml:space="preserve" text-anchor="start" x="294.14" y="-53.81" font-family="Helvetica,sans-Serif" font-size="9.00" fill="#57534e">browserside · bitcoinjs&#45;lib</text>
<text xml:space="preserve" text-anchor="start" x="259.27" y="-44.81" font-family="Helvetica,sans-Serif" font-size="9.00" fill="#a8a29e">txid + vout + redeemScript + recipient + fee</text>
</g>
<!-- prereq&#45;&gt;build_psbt -->
<g id="edge1" class="edge">
<title>prereq&#45;&gt;build_psbt</title>
<path fill="none" stroke="#e3a646" stroke-width="2" d="M176.89,-57.86C176.89,-57.86 231.34,-57.86 231.34,-57.86"/>
<polygon fill="#e3a646" stroke="#e3a646" stroke-width="2" points="231.34,-60.84 239.84,-57.86 231.34,-54.89 231.34,-60.84"/>
</g>
<!-- cosign_req -->
<g id="node3" class="node">
<title>cosign_req</title>
<path fill="#faf5ff" stroke="#7c3aed" stroke-width="1.6" d="M791.29,-151.72C791.29,-151.72 635.11,-151.72 635.11,-151.72 629.11,-151.72 623.11,-145.72 623.11,-139.72 623.11,-139.72 623.11,-116 623.11,-116 623.11,-110 629.11,-104 635.11,-104 635.11,-104 791.29,-104 791.29,-104 797.29,-104 803.29,-110 803.29,-116 803.29,-116 803.29,-139.72 803.29,-139.72 803.29,-145.72 797.29,-151.72 791.29,-151.72"/>
<text xml:space="preserve" text-anchor="start" x="668.2" y="-132.91" font-family="Helvetica,sans-Serif" font-weight="bold" font-size="11.00" fill="#1c1917">POST /api/cosign</text>
<text xml:space="preserve" text-anchor="start" x="640.82" y="-123.81" font-family="Helvetica,sans-Serif" font-size="9.00" fill="#57534e">{ psbt, commitment, stellarAddress }</text>
<text xml:space="preserve" text-anchor="start" x="638.95" y="-114.81" font-family="Helvetica,sans-Serif" font-size="9.00" fill="#a8a29e">Server verifies commitment on&#45;chain</text>
</g>
<!-- build_psbt&#45;&gt;cosign_req -->
<g id="edge2" class="edge">
<title>build_psbt&#45;&gt;cosign_req</title>
<path fill="none" stroke="#7c3aed" stroke-width="2" d="M448.87,-64.72C548.01,-64.72 683.01,-64.72 683.01,-64.72 683.01,-64.72 683.01,-91.74 683.01,-91.74"/>
<polygon fill="#7c3aed" stroke="#7c3aed" stroke-width="2" points="680.04,-91.74 683.01,-100.24 685.99,-91.74 680.04,-91.74"/>
<text xml:space="preserve" text-anchor="middle" x="535.73" y="-110.61" font-family="Helvetica,sans-Serif" font-size="10.00" fill="#7c3aed">unsigned PSBT (base64)</text>
</g>
<!-- user_sign -->
<g id="node6" class="node">
<title>user_sign</title>
<path fill="#fff7ed" stroke="#ea580c" stroke-width="1.6" d="M1121.47,-47.72C1121.47,-47.72 960.79,-47.72 960.79,-47.72 954.79,-47.72 948.79,-41.72 948.79,-35.72 948.79,-35.72 948.79,-12 948.79,-12 948.79,-6 954.79,0 960.79,0 960.79,0 1121.47,0 1121.47,0 1127.47,0 1133.47,-6 1133.47,-12 1133.47,-12 1133.47,-35.72 1133.47,-35.72 1133.47,-41.72 1127.47,-47.72 1121.47,-47.72"/>
<text xml:space="preserve" text-anchor="start" x="995.75" y="-28.91" font-family="Helvetica,sans-Serif" font-weight="bold" font-size="11.00" fill="#1c1917">User Signs PSBT</text>
<text xml:space="preserve" text-anchor="start" x="997.63" y="-19.81" font-family="Helvetica,sans-Serif" font-size="9.00" fill="#57534e">Xverse · sats&#45;connect</text>
<text xml:space="preserve" text-anchor="start" x="964.63" y="-10.81" font-family="Helvetica,sans-Serif" font-size="9.00" fill="#a8a29e">signPsbt({ psbt, signInputs: { &#39;0&#39;: [0] } })</text>
</g>
<!-- build_psbt&#45;&gt;user_sign -->
<g id="edge7" class="edge">
<title>build_psbt&#45;&gt;user_sign</title>
<path fill="none" stroke="#78716c" stroke-width="1.4" stroke-dasharray="5,2" d="M448.85,-38.57C448.85,-38.57 937.64,-38.57 937.64,-38.57"/>
<polygon fill="#78716c" stroke="#78716c" stroke-width="1.4" points="937.64,-41.55 946.14,-38.57 937.64,-35.6 937.64,-41.55"/>
<text xml:space="preserve" text-anchor="middle" x="713.2" y="-26.61" font-family="Helvetica,sans-Serif" font-size="10.00" fill="#57534e">original PSBT</text>
</g>
<!-- on_chain_check -->
<g id="node4" class="node">
<title>on_chain_check</title>
<path fill="#eff6ff" stroke="#2563eb" stroke-width="1.6" d="M1140.22,-226.72C1140.22,-226.72 942.04,-226.72 942.04,-226.72 936.04,-226.72 930.04,-220.72 930.04,-214.72 930.04,-214.72 930.04,-191 930.04,-191 930.04,-185 936.04,-179 942.04,-179 942.04,-179 1140.22,-179 1140.22,-179 1146.22,-179 1152.22,-185 1152.22,-191 1152.22,-191 1152.22,-214.72 1152.22,-214.72 1152.22,-220.72 1146.22,-226.72 1140.22,-226.72"/>
<text xml:space="preserve" text-anchor="start" x="998.38" y="-207.91" font-family="Helvetica,sans-Serif" font-weight="bold" font-size="11.00" fill="#1c1917">On&#45;Chain Check</text>
<text xml:space="preserve" text-anchor="start" x="945.88" y="-198.81" font-family="Helvetica,sans-Serif" font-size="9.00" fill="#57534e">is_commitment_pending(commitment) == false</text>
<text xml:space="preserve" text-anchor="start" x="960.13" y="-189.81" font-family="Helvetica,sans-Serif" font-size="9.00" fill="#a8a29e">Proves commitment is in the Merkle tree</text>
</g>
<!-- cosign_req&#45;&gt;on_chain_check -->
<g id="edge3" class="edge">
<title>cosign_req&#45;&gt;on_chain_check</title>
<path fill="none" stroke="#2563eb" stroke-width="1.4" stroke-dasharray="5,2" d="M804.07,-149.39C866.82,-149.39 939.01,-149.39 939.01,-149.39 939.01,-149.39 939.01,-167.7 939.01,-167.7"/>
<polygon fill="#2563eb" stroke="#2563eb" stroke-width="1.4" points="936.04,-167.7 939.01,-176.2 941.99,-167.7 936.04,-167.7"/>
</g>
<!-- cosign_req&#45;&gt;user_sign -->
<g id="edge6" class="edge">
<title>cosign_req&#45;&gt;user_sign</title>
<path fill="none" stroke="#7c3aed" stroke-width="2" d="M743.01,-103.36C743.01,-78.34 743.01,-43.15 743.01,-43.15 743.01,-43.15 936.5,-43.15 936.5,-43.15"/>
<polygon fill="#7c3aed" stroke="#7c3aed" stroke-width="2" points="936.5,-46.12 945,-43.15 936.5,-40.17 936.5,-46.12"/>
<text xml:space="preserve" text-anchor="middle" x="866.66" y="-92.61" font-family="Helvetica,sans-Serif" font-size="10.00" fill="#7c3aed">{ signedPsbt }</text>
</g>
<!-- finalize -->
<g id="node7" class="node">
<title>finalize</title>
<path fill="#ecfdf5" stroke="#059669" stroke-width="1.6" d="M1532.65,-144.72C1532.65,-144.72 1309.72,-144.72 1309.72,-144.72 1303.72,-144.72 1297.72,-138.72 1297.72,-132.72 1297.72,-132.72 1297.72,-109 1297.72,-109 1297.72,-103 1303.72,-97 1309.72,-97 1309.72,-97 1532.65,-97 1532.65,-97 1538.65,-97 1544.65,-103 1544.65,-109 1544.65,-109 1544.65,-132.72 1544.65,-132.72 1544.65,-138.72 1538.65,-144.72 1532.65,-144.72"/>
<text xml:space="preserve" text-anchor="start" x="1382.93" y="-125.91" font-family="Helvetica,sans-Serif" font-weight="bold" font-size="11.00" fill="#1c1917">finalizePathA()</text>
<text xml:space="preserve" text-anchor="start" x="1371.68" y="-116.81" font-family="Helvetica,sans-Serif" font-size="9.00" fill="#57534e">Merge partial signatures</text>
<text xml:space="preserve" text-anchor="start" x="1313.56" y="-107.81" font-family="Helvetica,sans-Serif" font-size="9.00" fill="#a8a29e">Witness: [user_sig, protocol_sig, 0x01, redeemScript]</text>
</g>
<!-- cosign_req&#45;&gt;finalize -->
<g id="edge9" class="edge">
<title>cosign_req&#45;&gt;finalize</title>
<path fill="none" stroke="#7c3aed" stroke-width="1.4" d="M803.95,-124.36C803.95,-124.36 1286.35,-124.36 1286.35,-124.36"/>
<polygon fill="#7c3aed" stroke="#7c3aed" stroke-width="1.4" points="1286.35,-127.34 1294.85,-124.36 1286.35,-121.39 1286.35,-127.34"/>
<text xml:space="preserve" text-anchor="middle" x="1041.13" y="-129.61" font-family="Helvetica,sans-Serif" font-size="10.00" fill="#7c3aed">protocol&#45;signed PSBT</text>
</g>
<!-- protocol_sign -->
<g id="node5" class="node">
<title>protocol_sign</title>
<path fill="#faf5ff" stroke="#7c3aed" stroke-width="1.6" d="M1521.4,-244.72C1521.4,-244.72 1320.97,-244.72 1320.97,-244.72 1314.97,-244.72 1308.97,-238.72 1308.97,-232.72 1308.97,-232.72 1308.97,-209 1308.97,-209 1308.97,-203 1314.97,-197 1320.97,-197 1320.97,-197 1521.4,-197 1521.4,-197 1527.4,-197 1533.4,-203 1533.4,-209 1533.4,-209 1533.4,-232.72 1533.4,-232.72 1533.4,-238.72 1527.4,-244.72 1521.4,-244.72"/>
<text xml:space="preserve" text-anchor="start" x="1375.81" y="-225.91" font-family="Helvetica,sans-Serif" font-weight="bold" font-size="11.00" fill="#1c1917">Protocol Co&#45;Sign</text>
<text xml:space="preserve" text-anchor="start" x="1324.81" y="-216.81" font-family="Helvetica,sans-Serif" font-size="9.00" fill="#57534e">PROTOCOL_SIGNING_KEY (WIF · server&#45;only)</text>
<text xml:space="preserve" text-anchor="start" x="1330.43" y="-207.81" font-family="Helvetica,sans-Serif" font-size="9.00" fill="#a8a29e">ECPair.fromWIF → psbt.signInput(0, keypair)</text>
</g>
<!-- on_chain_check&#45;&gt;protocol_sign -->
<g id="edge4" class="edge">
<title>on_chain_check&#45;&gt;protocol_sign</title>
<path fill="none" stroke="#16a34a" stroke-width="1.4" d="M1152.85,-211.86C1152.85,-211.86 1297.61,-211.86 1297.61,-211.86"/>
<polygon fill="#16a34a" stroke="#16a34a" stroke-width="1.4" points="1297.61,-214.84 1306.11,-211.86 1297.61,-208.89 1297.61,-214.84"/>
<text xml:space="preserve" text-anchor="middle" x="1224.97" y="-210.61" font-family="Helvetica,sans-Serif" font-size="10.00" fill="#16a34a">eligible</text>
</g>
<!-- protocol_sign&#45;&gt;cosign_req -->
<g id="edge5" class="edge">
<title>protocol_sign&#45;&gt;cosign_req</title>
<path fill="none" stroke="#7c3aed" stroke-width="1.4" stroke-dasharray="5,2" d="M1421.01,-196.28C1421.01,-174.81 1421.01,-147.05 1421.01,-147.05 1421.01,-147.05 814.54,-147.05 814.54,-147.05"/>
<polygon fill="#7c3aed" stroke="#7c3aed" stroke-width="1.4" points="814.54,-144.08 806.04,-147.05 814.54,-150.03 814.54,-144.08"/>
<text xml:space="preserve" text-anchor="middle" x="1041.13" y="-308.61" font-family="Helvetica,sans-Serif" font-size="10.00" fill="#57534e">signedPsbt</text>
</g>
<!-- user_sign&#45;&gt;finalize -->
<g id="edge8" class="edge">
<title>user_sign&#45;&gt;finalize</title>
<path fill="none" stroke="#ea580c" stroke-width="2" d="M1041.01,-48.11C1041.01,-70.56 1041.01,-100.5 1041.01,-100.5 1041.01,-100.5 1285.44,-100.5 1285.44,-100.5"/>
<polygon fill="#ea580c" stroke="#ea580c" stroke-width="2" points="1285.44,-103.48 1293.94,-100.5 1285.44,-97.53 1285.44,-103.48"/>
<text xml:space="preserve" text-anchor="middle" x="1224.97" y="-59.61" font-family="Helvetica,sans-Serif" font-size="10.00" fill="#ea580c">user&#45;signed PSBT</text>
</g>
<!-- broadcast -->
<g id="node8" class="node">
<title>broadcast</title>
<path fill="#fff7ed" stroke="#ea580c" stroke-width="1.6" d="M1796.83,-144.72C1796.83,-144.72 1681.15,-144.72 1681.15,-144.72 1675.15,-144.72 1669.15,-138.72 1669.15,-132.72 1669.15,-132.72 1669.15,-109 1669.15,-109 1669.15,-103 1675.15,-97 1681.15,-97 1681.15,-97 1796.83,-97 1796.83,-97 1802.83,-97 1808.83,-103 1808.83,-109 1808.83,-109 1808.83,-132.72 1808.83,-132.72 1808.83,-138.72 1802.83,-144.72 1796.83,-144.72"/>
<text xml:space="preserve" text-anchor="start" x="1684.99" y="-125.91" font-family="Helvetica,sans-Serif" font-weight="bold" font-size="11.00" fill="#1c1917">Broadcast to Bitcoin</text>
<text xml:space="preserve" text-anchor="start" x="1704.49" y="-116.81" font-family="Helvetica,sans-Serif" font-size="9.00" fill="#57534e">POST Esplora /tx</text>
<text xml:space="preserve" text-anchor="start" x="1699.61" y="-107.81" font-family="Helvetica,sans-Serif" font-size="9.00" fill="#a8a29e">Returns Bitcoin txid</text>
</g>
<!-- finalize&#45;&gt;broadcast -->
<g id="edge10" class="edge">
<title>finalize&#45;&gt;broadcast</title>
<path fill="none" stroke="#e3a646" stroke-width="2.5" d="M1545.42,-120.86C1545.42,-120.86 1656.24,-120.86 1656.24,-120.86"/>
<polygon fill="#e3a646" stroke="#e3a646" stroke-width="2.5" points="1656.24,-123.84 1664.74,-120.86 1656.24,-117.89 1656.24,-123.84"/>
<text xml:space="preserve" text-anchor="middle" x="1606.9" y="-122.61" font-family="Helvetica,sans-Serif" font-size="10.00" fill="#e3a646">signed tx hex</text>
</g>
<!-- done -->
<g id="node9" class="node">
<title>done</title>
<path fill="#f0fdf4" stroke="#16a34a" stroke-width="1.6" d="M2002.01,-144.72C2002.01,-144.72 1887.83,-144.72 1887.83,-144.72 1881.83,-144.72 1875.83,-138.72 1875.83,-132.72 1875.83,-132.72 1875.83,-109 1875.83,-109 1875.83,-103 1881.83,-97 1887.83,-97 1887.83,-97 2002.01,-97 2002.01,-97 2008.01,-97 2014.01,-103 2014.01,-109 2014.01,-109 2014.01,-132.72 2014.01,-132.72 2014.01,-138.72 2008.01,-144.72 2002.01,-144.72"/>
<text xml:space="preserve" text-anchor="start" x="1907.79" y="-125.91" font-family="Helvetica,sans-Serif" font-weight="bold" font-size="11.00" fill="#1c1917">BTC Released</text>
<text xml:space="preserve" text-anchor="start" x="1891.67" y="-116.81" font-family="Helvetica,sans-Serif" font-size="9.00" fill="#57534e">Collateral returned to user</text>
<text xml:space="preserve" text-anchor="start" x="1910.42" y="-107.81" font-family="Helvetica,sans-Serif" font-size="9.00" fill="#a8a29e">Loan fully closed</text>
</g>
<!-- broadcast&#45;&gt;done -->
<g id="edge11" class="edge">
<title>broadcast&#45;&gt;done</title>
<path fill="none" stroke="#e3a646" stroke-width="2.5" d="M1809.57,-120.86C1809.57,-120.86 1862.84,-120.86 1862.84,-120.86"/>
<polygon fill="#e3a646" stroke="#e3a646" stroke-width="2.5" points="1862.84,-123.84 1871.34,-120.86 1862.84,-117.89 1862.84,-123.84"/>
</g>
</g>
</svg>
