<?xml version="1.0" encoding="UTF-8" standalone="no"?>
<!DOCTYPE svg PUBLIC "-//W3C//DTD SVG 1.1//EN"
 "http://www.w3.org/Graphics/SVG/1.1/DTD/svg11.dtd">
<!-- Generated by graphviz version 15.0.0 (20260523.1842)
 -->
<!-- Title: zk&#45;circuits Pages: 1 -->
<svg width="2700pt" height="1340pt"
 viewBox="0.00 0.00 2700.00 1340.00" xmlns="http://www.w3.org/2000/svg" xmlns:xlink="http://www.w3.org/1999/xlink">
<g id="graph0" class="graph" transform="scale(1.75015 1.75015) rotate(0) translate(50.4 715.4)">
<title>zk&#45;circuits</title>
<text xml:space="preserve" text-anchor="start" x="56.75" y="-649.65" font-family="Helvetica,sans-Serif" font-weight="bold" font-size="13.00" fill="#1c1917">Writz Protocol — ZK Circuits (Groth16 / BN254)</text>
<text xml:space="preserve" text-anchor="start" x="8" y="-640.45" font-family="Helvetica,sans-Serif" font-size="9.00" fill="#57534e">All proofs generated in&#45;browser via snarkjs · verified on Soroban via Protocol X&#45;Ray host functions</text>
<g id="clust1" class="cluster">
<title>cluster_deposit</title>
<path fill="none" stroke="#ea580c" stroke-width="2.5" d="M71.75,-426C71.75,-426 1045.37,-426 1045.37,-426 1051.37,-426 1057.37,-432 1057.37,-438 1057.37,-438 1057.37,-615 1057.37,-615 1057.37,-621 1051.37,-627 1045.37,-627 1045.37,-627 71.75,-627 71.75,-627 65.75,-627 59.75,-621 59.75,-615 59.75,-615 59.75,-438 59.75,-438 59.75,-432 65.75,-426 71.75,-426"/>
<text xml:space="preserve" text-anchor="start" x="70.38" y="-612.6" font-family="Helvetica,sans-Serif" font-weight="bold" font-size="12.00" fill="#ea580c">Deposit Circuit</text>
<text xml:space="preserve" text-anchor="start" x="67.75" y="-603.45" font-family="Helvetica,sans-Serif" font-size="9.00" fill="#57534e">circuits/deposit.circom</text>
</g>
<g id="clust2" class="cluster">
<title>cluster_br</title>
<path fill="none" stroke="#2563eb" stroke-width="2.5" d="M20,-217C20,-217 1063.75,-217 1063.75,-217 1069.75,-217 1075.75,-223 1075.75,-229 1075.75,-229 1075.75,-406 1075.75,-406 1075.75,-412 1069.75,-418 1063.75,-418 1063.75,-418 20,-418 20,-418 14,-418 8,-412 8,-406 8,-406 8,-229 8,-229 8,-223 14,-217 20,-217"/>
<text xml:space="preserve" text-anchor="start" x="16" y="-403.6" font-family="Helvetica,sans-Serif" font-weight="bold" font-size="12.00" fill="#2563eb">Borrow / Repay Circuit</text>
<text xml:space="preserve" text-anchor="start" x="21.62" y="-394.45" font-family="Helvetica,sans-Serif" font-size="9.00" fill="#57534e">circuits/borrow_repay.circom</text>
</g>
<g id="clust3" class="cluster">
<title>cluster_liq</title>
<path fill="none" stroke="#dc2626" stroke-width="2.5" d="M37.25,-8C37.25,-8 1076.5,-8 1076.5,-8 1082.5,-8 1088.5,-14 1088.5,-20 1088.5,-20 1088.5,-197 1088.5,-197 1088.5,-203 1082.5,-209 1076.5,-209 1076.5,-209 37.25,-209 37.25,-209 31.25,-209 25.25,-203 25.25,-197 25.25,-197 25.25,-20 25.25,-20 25.25,-14 31.25,-8 37.25,-8"/>
<text xml:space="preserve" text-anchor="start" x="33.25" y="-194.6" font-family="Helvetica,sans-Serif" font-weight="bold" font-size="12.00" fill="#dc2626">Liquidation Circuit</text>
<text xml:space="preserve" text-anchor="start" x="34.38" y="-185.45" font-family="Helvetica,sans-Serif" font-size="9.00" fill="#57534e">circuits/liquidation.circom</text>
</g>
<!-- dep_priv -->
<g id="node1" class="node">
<title>dep_priv</title>
<path fill="#fff7ed" stroke="#ea580c" stroke-width="1.6" d="M183.3,-491.86C183.3,-491.86 99.12,-491.86 99.12,-491.86 93.12,-491.86 87.12,-485.86 87.12,-479.86 87.12,-479.86 87.12,-456.14 87.12,-456.14 87.12,-450.14 93.12,-444.14 99.12,-444.14 99.12,-444.14 183.3,-444.14 183.3,-444.14 189.3,-444.14 195.3,-450.14 195.3,-456.14 195.3,-456.14 195.3,-479.86 195.3,-479.86 195.3,-485.86 189.3,-491.86 183.3,-491.86"/>
<text xml:space="preserve" text-anchor="start" x="104.84" y="-473.05" font-family="Helvetica,sans-Serif" font-weight="bold" font-size="11.00" fill="#1c1917">Private Inputs</text>
<text xml:space="preserve" text-anchor="start" x="102.96" y="-463.95" font-family="Helvetica,sans-Serif" font-size="9.00" fill="#57534e">collateral_satoshis</text>
<text xml:space="preserve" text-anchor="start" x="112.71" y="-454.95" font-family="Helvetica,sans-Serif" font-size="9.00" fill="#a8a29e">secret · nonce</text>
</g>
<!-- dep_circ -->
<g id="node3" class="node">
<title>dep_circ</title>
<path fill="#f0f9ff" stroke="#0284c7" stroke-width="1.6" d="M631.33,-489.3C631.33,-489.3 588.61,-515.66 588.61,-515.66 583.5,-518.81 572.4,-521.96 566.4,-521.96 566.4,-521.96 464.1,-521.96 464.1,-521.96 458.1,-521.96 447,-518.81 441.89,-515.66 441.89,-515.66 399.17,-489.3 399.17,-489.3 394.06,-486.15 394.06,-479.85 399.17,-476.7 399.17,-476.7 441.89,-450.34 441.89,-450.34 447,-447.19 458.1,-444.04 464.1,-444.04 464.1,-444.04 566.4,-444.04 566.4,-444.04 572.4,-444.04 583.5,-447.19 588.61,-450.34 588.61,-450.34 631.33,-476.7 631.33,-476.7 636.44,-479.85 636.44,-486.15 631.33,-489.3"/>
<text xml:space="preserve" text-anchor="start" x="476.25" y="-488.05" font-family="Helvetica,sans-Serif" font-weight="bold" font-size="11.00" fill="#1c1917">deposit.circom</text>
<text xml:space="preserve" text-anchor="start" x="453.75" y="-478.95" font-family="Helvetica,sans-Serif" font-size="9.00" fill="#57534e">Poseidon hash · range checks</text>
<text xml:space="preserve" text-anchor="start" x="460.87" y="-469.95" font-family="Helvetica,sans-Serif" font-size="9.00" fill="#a8a29e">txid binding to commitment</text>
</g>
<!-- dep_priv&#45;&gt;dep_circ -->
<g id="edge1" class="edge">
<title>dep_priv&#45;&gt;dep_circ</title>
<path fill="none" stroke="#ea580c" stroke-width="1.4" d="M195.91,-470.17C245.19,-472.15 320.16,-475.17 384.97,-477.79"/>
<polygon fill="#ea580c" stroke="#ea580c" stroke-width="1.4" points="384.55,-480.75 393.16,-478.12 384.79,-474.8 384.55,-480.75"/>
</g>
<!-- dep_pub_in -->
<g id="node2" class="node">
<title>dep_pub_in</title>
<path fill="#fff7ed" stroke="#ea580c" stroke-width="1.6" d="M192.68,-579.86C192.68,-579.86 89.75,-579.86 89.75,-579.86 83.75,-579.86 77.75,-573.86 77.75,-567.86 77.75,-567.86 77.75,-544.14 77.75,-544.14 77.75,-538.14 83.75,-532.14 89.75,-532.14 89.75,-532.14 192.68,-532.14 192.68,-532.14 198.68,-532.14 204.68,-538.14 204.68,-544.14 204.68,-544.14 204.68,-567.86 204.68,-567.86 204.68,-573.86 198.68,-579.86 192.68,-579.86"/>
<text xml:space="preserve" text-anchor="start" x="106.71" y="-561.05" font-family="Helvetica,sans-Serif" font-weight="bold" font-size="11.00" fill="#1c1917">Public Inputs</text>
<text xml:space="preserve" text-anchor="start" x="93.59" y="-551.95" font-family="Helvetica,sans-Serif" font-size="9.00" fill="#57534e">btc_txid_lo · btc_txid_hi</text>
<text xml:space="preserve" text-anchor="start" x="96.59" y="-542.95" font-family="Helvetica,sans-Serif" font-size="9.00" fill="#a8a29e">min_deposit_satoshis</text>
</g>
<!-- dep_pub_in&#45;&gt;dep_circ -->
<g id="edge2" class="edge">
<title>dep_pub_in&#45;&gt;dep_circ</title>
<path fill="none" stroke="#ea580c" stroke-width="1.4" d="M205.33,-543.62C260.72,-532.75 342.44,-516.71 407.91,-503.87"/>
<polygon fill="#ea580c" stroke="#ea580c" stroke-width="1.4" points="408.43,-506.8 416.19,-502.24 407.28,-500.96 408.43,-506.8"/>
</g>
<!-- dep_out -->
<g id="node4" class="node">
<title>dep_out</title>
<path fill="#f0fdf4" stroke="#16a34a" stroke-width="1.6" d="M1027.37,-498.86C1027.37,-498.86 817.19,-498.86 817.19,-498.86 811.19,-498.86 805.19,-492.86 805.19,-486.86 805.19,-486.86 805.19,-463.14 805.19,-463.14 805.19,-457.14 811.19,-451.14 817.19,-451.14 817.19,-451.14 1027.37,-451.14 1027.37,-451.14 1033.37,-451.14 1039.37,-457.14 1039.37,-463.14 1039.37,-463.14 1039.37,-486.86 1039.37,-486.86 1039.37,-492.86 1033.37,-498.86 1027.37,-498.86"/>
<text xml:space="preserve" text-anchor="start" x="883.28" y="-480.05" font-family="Helvetica,sans-Serif" font-weight="bold" font-size="11.00" fill="#1c1917">Public Outputs</text>
<text xml:space="preserve" text-anchor="start" x="891.53" y="-470.95" font-family="Helvetica,sans-Serif" font-size="9.00" fill="#57534e">[0] commitment</text>
<text xml:space="preserve" text-anchor="start" x="821.03" y="-461.95" font-family="Helvetica,sans-Serif" font-size="9.00" fill="#a8a29e">[1] nullifier · [2] txid_lo · [3] txid_hi · [4] min_deposit</text>
</g>
<!-- dep_circ&#45;&gt;dep_out -->
<g id="edge3" class="edge">
<title>dep_circ&#45;&gt;dep_out</title>
<path fill="none" stroke="#0284c7" stroke-width="2" d="M638.87,-480.58C687.69,-479.61 743.89,-478.5 793.23,-477.53"/>
<polygon fill="#0284c7" stroke="#0284c7" stroke-width="2" points="793.16,-480.51 801.6,-477.36 793.04,-474.56 793.16,-480.51"/>
</g>
<!-- verifier -->
<g id="node13" class="node">
<title>verifier</title>
<path fill="#f0f9ff" stroke="#0284c7" stroke-width="1.6" d="M1429.93,-326.86C1429.93,-326.86 1236.25,-326.86 1236.25,-326.86 1230.25,-326.86 1224.25,-320.86 1224.25,-314.86 1224.25,-314.86 1224.25,-291.14 1224.25,-291.14 1224.25,-285.14 1230.25,-279.14 1236.25,-279.14 1236.25,-279.14 1429.93,-279.14 1429.93,-279.14 1435.93,-279.14 1441.93,-285.14 1441.93,-291.14 1441.93,-291.14 1441.93,-314.86 1441.93,-314.86 1441.93,-320.86 1435.93,-326.86 1429.93,-326.86"/>
<text xml:space="preserve" text-anchor="start" x="1283.96" y="-308.05" font-family="Helvetica,sans-Serif" font-weight="bold" font-size="11.00" fill="#1c1917">zk&#45;verifier contract</text>
<text xml:space="preserve" text-anchor="start" x="1279.46" y="-298.95" font-family="Helvetica,sans-Serif" font-size="9.00" fill="#57534e">Groth16 verify on Soroban</text>
<text xml:space="preserve" text-anchor="start" x="1240.09" y="-289.95" font-family="Helvetica,sans-Serif" font-size="9.00" fill="#a8a29e">Protocol X&#45;Ray host functions · BN254 pairing</text>
</g>
<!-- dep_out&#45;&gt;verifier -->
<g id="edge10" class="edge">
<title>dep_out&#45;&gt;verifier</title>
<path fill="none" stroke="#0284c7" stroke-width="1.4" d="M1021.75,-450.43C1043.98,-443.93 1067.28,-436.37 1088.5,-428 1157.67,-400.72 1233.25,-360.11 1281.59,-332.65"/>
<polygon fill="#0284c7" stroke="#0284c7" stroke-width="1.4" points="1282.84,-335.36 1288.74,-328.56 1279.89,-330.19 1282.84,-335.36"/>
<text xml:space="preserve" text-anchor="middle" x="1147.37" y="-421.35" font-family="Helvetica,sans-Serif" font-size="10.00" fill="#0284c7">verify_deposit</text>
</g>
<!-- br_priv -->
<g id="node5" class="node">
<title>br_priv</title>
<path fill="#eff6ff" stroke="#2563eb" stroke-width="1.6" d="M244.43,-282.86C244.43,-282.86 38,-282.86 38,-282.86 32,-282.86 26,-276.86 26,-270.86 26,-270.86 26,-247.14 26,-247.14 26,-241.14 32,-235.14 38,-235.14 38,-235.14 244.43,-235.14 244.43,-235.14 250.43,-235.14 256.43,-241.14 256.43,-247.14 256.43,-247.14 256.43,-270.86 256.43,-270.86 256.43,-276.86 250.43,-282.86 244.43,-282.86"/>
<text xml:space="preserve" text-anchor="start" x="104.84" y="-264.05" font-family="Helvetica,sans-Serif" font-weight="bold" font-size="11.00" fill="#1c1917">Private Inputs</text>
<text xml:space="preserve" text-anchor="start" x="41.84" y="-254.95" font-family="Helvetica,sans-Serif" font-size="9.00" fill="#57534e">collateral · old_debt · secret · nonce · new_nonce</text>
<text xml:space="preserve" text-anchor="start" x="60.96" y="-245.95" font-family="Helvetica,sans-Serif" font-size="9.00" fill="#a8a29e">path_elements · path_indices · old_root</text>
</g>
<!-- br_circ -->
<g id="node7" class="node">
<title>br_circ</title>
<path fill="#f0f9ff" stroke="#0284c7" stroke-width="1.6" d="M695.95,-307.52C695.95,-307.52 622.28,-337.45 622.28,-337.45 616.72,-339.7 605.16,-341.96 599.16,-341.96 599.16,-341.96 431.34,-341.96 431.34,-341.96 425.34,-341.96 413.78,-339.7 408.22,-337.45 408.22,-337.45 334.55,-307.52 334.55,-307.52 328.99,-305.26 328.99,-300.74 334.55,-298.48 334.55,-298.48 408.22,-268.55 408.22,-268.55 413.78,-266.3 425.34,-264.04 431.34,-264.04 431.34,-264.04 599.16,-264.04 599.16,-264.04 605.16,-264.04 616.72,-266.3 622.28,-268.55 622.28,-268.55 695.95,-298.48 695.95,-298.48 701.51,-300.74 701.51,-305.26 695.95,-307.52"/>
<text xml:space="preserve" text-anchor="start" x="459.37" y="-308.05" font-family="Helvetica,sans-Serif" font-weight="bold" font-size="11.00" fill="#1c1917">borrow_repay.circom</text>
<text xml:space="preserve" text-anchor="start" x="470.25" y="-298.95" font-family="Helvetica,sans-Serif" font-size="9.00" fill="#57534e">Merkle inclusion proof</text>
<text xml:space="preserve" text-anchor="start" x="413.62" y="-289.95" font-family="Helvetica,sans-Serif" font-size="9.00" fill="#a8a29e">Ratio enforcement · Poseidon commitment update</text>
</g>
<!-- br_priv&#45;&gt;br_circ -->
<g id="edge4" class="edge">
<title>br_priv&#45;&gt;br_circ</title>
<path fill="none" stroke="#2563eb" stroke-width="1.4" d="M257.13,-272.59C287.98,-276.24 321.91,-280.25 354.71,-284.13"/>
<polygon fill="#2563eb" stroke="#2563eb" stroke-width="1.4" points="353.96,-287.04 362.75,-285.08 354.66,-281.13 353.96,-287.04"/>
</g>
<!-- br_pub_in -->
<g id="node6" class="node">
<title>br_pub_in</title>
<path fill="#eff6ff" stroke="#2563eb" stroke-width="1.6" d="M229.8,-370.86C229.8,-370.86 52.62,-370.86 52.62,-370.86 46.62,-370.86 40.62,-364.86 40.62,-358.86 40.62,-358.86 40.62,-335.14 40.62,-335.14 40.62,-329.14 46.62,-323.14 52.62,-323.14 52.62,-323.14 229.8,-323.14 229.8,-323.14 235.8,-323.14 241.8,-329.14 241.8,-335.14 241.8,-335.14 241.8,-358.86 241.8,-358.86 241.8,-364.86 235.8,-370.86 229.8,-370.86"/>
<text xml:space="preserve" text-anchor="start" x="106.71" y="-352.05" font-family="Helvetica,sans-Serif" font-weight="bold" font-size="11.00" fill="#1c1917">Public Inputs</text>
<text xml:space="preserve" text-anchor="start" x="74.09" y="-342.95" font-family="Helvetica,sans-Serif" font-size="9.00" fill="#57534e">delta_stroops · is_borrow (0 or 1)</text>
<text xml:space="preserve" text-anchor="start" x="56.46" y="-333.95" font-family="Helvetica,sans-Serif" font-size="9.00" fill="#a8a29e">btc_price_stroops_per_btc · min_ratio_bp</text>
</g>
<!-- br_pub_in&#45;&gt;br_circ -->
<g id="edge5" class="edge">
<title>br_pub_in&#45;&gt;br_circ</title>
<path fill="none" stroke="#2563eb" stroke-width="1.4" d="M242.4,-335.15C276.98,-331.06 316.62,-326.37 354.74,-321.87"/>
<polygon fill="#2563eb" stroke="#2563eb" stroke-width="1.4" points="354.72,-324.86 362.81,-320.91 354.02,-318.95 354.72,-324.86"/>
</g>
<!-- br_out -->
<g id="node8" class="node">
<title>br_out</title>
<path fill="#f0fdf4" stroke="#16a34a" stroke-width="1.6" d="M1045.75,-326.86C1045.75,-326.86 798.82,-326.86 798.82,-326.86 792.82,-326.86 786.82,-320.86 786.82,-314.86 786.82,-314.86 786.82,-291.14 786.82,-291.14 786.82,-285.14 792.82,-279.14 798.82,-279.14 798.82,-279.14 1045.75,-279.14 1045.75,-279.14 1051.75,-279.14 1057.75,-285.14 1057.75,-291.14 1057.75,-291.14 1057.75,-314.86 1057.75,-314.86 1057.75,-320.86 1051.75,-326.86 1045.75,-326.86"/>
<text xml:space="preserve" text-anchor="start" x="883.28" y="-308.05" font-family="Helvetica,sans-Serif" font-weight="bold" font-size="11.00" fill="#1c1917">Public Outputs</text>
<text xml:space="preserve" text-anchor="start" x="866.03" y="-298.95" font-family="Helvetica,sans-Serif" font-size="9.00" fill="#57534e">[0] old_root · [1] old_nullifier</text>
<text xml:space="preserve" text-anchor="start" x="802.66" y="-289.95" font-family="Helvetica,sans-Serif" font-size="9.00" fill="#a8a29e">[2] new_commitment · [3] new_root · [4] delta · [5] is_borrow</text>
</g>
<!-- br_circ&#45;&gt;br_out -->
<g id="edge6" class="edge">
<title>br_circ&#45;&gt;br_out</title>
<path fill="none" stroke="#0284c7" stroke-width="2" d="M708.98,-303C731.11,-303 753.39,-303 774.77,-303"/>
<polygon fill="#0284c7" stroke="#0284c7" stroke-width="2" points="774.68,-305.98 783.18,-303 774.68,-300.03 774.68,-305.98"/>
</g>
<!-- br_out&#45;&gt;verifier -->
<g id="edge11" class="edge">
<title>br_out&#45;&gt;verifier</title>
<path fill="none" stroke="#0284c7" stroke-width="1.4" d="M1058.28,-303C1108.33,-303 1164.68,-303 1213.19,-303"/>
<polygon fill="#0284c7" stroke="#0284c7" stroke-width="1.4" points="1213.12,-305.98 1221.62,-303 1213.12,-300.03 1213.12,-305.98"/>
<text xml:space="preserve" text-anchor="middle" x="1147.37" y="-304.75" font-family="Helvetica,sans-Serif" font-size="10.00" fill="#0284c7">verify_borrow_repay</text>
</g>
<!-- liq_priv -->
<g id="node9" class="node">
<title>liq_priv</title>
<path fill="#fef2f2" stroke="#dc2626" stroke-width="1.6" d="M208.05,-73.86C208.05,-73.86 74.37,-73.86 74.37,-73.86 68.37,-73.86 62.37,-67.86 62.37,-61.86 62.37,-61.86 62.37,-38.14 62.37,-38.14 62.37,-32.14 68.37,-26.14 74.37,-26.14 74.37,-26.14 208.05,-26.14 208.05,-26.14 214.05,-26.14 220.05,-32.14 220.05,-38.14 220.05,-38.14 220.05,-61.86 220.05,-61.86 220.05,-67.86 214.05,-73.86 208.05,-73.86"/>
<text xml:space="preserve" text-anchor="start" x="104.84" y="-55.05" font-family="Helvetica,sans-Serif" font-weight="bold" font-size="11.00" fill="#1c1917">Private Inputs</text>
<text xml:space="preserve" text-anchor="start" x="78.21" y="-45.95" font-family="Helvetica,sans-Serif" font-size="9.00" fill="#57534e">collateral · debt · secret · nonce</text>
<text xml:space="preserve" text-anchor="start" x="81.21" y="-36.95" font-family="Helvetica,sans-Serif" font-size="9.00" fill="#a8a29e">path_elements · path_indices</text>
</g>
<!-- liq_circ -->
<g id="node11" class="node">
<title>liq_circ</title>
<path fill="#f0f9ff" stroke="#0284c7" stroke-width="1.6" d="M637.33,-129.09C637.33,-129.09 591.8,-155.88 591.8,-155.88 586.63,-158.92 575.46,-161.96 569.46,-161.96 569.46,-161.96 461.04,-161.96 461.04,-161.96 455.04,-161.96 443.87,-158.92 438.7,-155.88 438.7,-155.88 393.17,-129.09 393.17,-129.09 388,-126.04 388,-119.96 393.17,-116.91 393.17,-116.91 438.7,-90.12 438.7,-90.12 443.87,-87.08 455.04,-84.04 461.04,-84.04 461.04,-84.04 569.46,-84.04 569.46,-84.04 575.46,-84.04 586.63,-87.08 591.8,-90.12 591.8,-90.12 637.33,-116.91 637.33,-116.91 642.5,-119.96 642.5,-126.04 637.33,-129.09"/>
<text xml:space="preserve" text-anchor="start" x="468" y="-128.05" font-family="Helvetica,sans-Serif" font-weight="bold" font-size="11.00" fill="#1c1917">liquidation.circom</text>
<text xml:space="preserve" text-anchor="start" x="466.87" y="-118.95" font-family="Helvetica,sans-Serif" font-size="9.00" fill="#57534e">Proves ratio &lt; threshold</text>
<text xml:space="preserve" text-anchor="start" x="450" y="-109.95" font-family="Helvetica,sans-Serif" font-size="9.00" fill="#a8a29e">Reveals debt amount for keeper</text>
</g>
<!-- liq_priv&#45;&gt;liq_circ -->
<g id="edge7" class="edge">
<title>liq_priv&#45;&gt;liq_circ</title>
<path fill="none" stroke="#dc2626" stroke-width="1.4" d="M220.66,-65.39C274.06,-75.87 345.49,-89.89 404.52,-101.47"/>
<polygon fill="#dc2626" stroke="#dc2626" stroke-width="1.4" points="403.64,-104.33 412.56,-103.05 404.79,-98.49 403.64,-104.33"/>
</g>
<!-- liq_pub_in -->
<g id="node10" class="node">
<title>liq_pub_in</title>
<path fill="#fef2f2" stroke="#dc2626" stroke-width="1.6" d="M227.18,-161.86C227.18,-161.86 55.25,-161.86 55.25,-161.86 49.25,-161.86 43.25,-155.86 43.25,-149.86 43.25,-149.86 43.25,-126.14 43.25,-126.14 43.25,-120.14 49.25,-114.14 55.25,-114.14 55.25,-114.14 227.18,-114.14 227.18,-114.14 233.18,-114.14 239.18,-120.14 239.18,-126.14 239.18,-126.14 239.18,-149.86 239.18,-149.86 239.18,-155.86 233.18,-161.86 227.18,-161.86"/>
<text xml:space="preserve" text-anchor="start" x="106.71" y="-143.05" font-family="Helvetica,sans-Serif" font-weight="bold" font-size="11.00" fill="#1c1917">Public Inputs</text>
<text xml:space="preserve" text-anchor="start" x="59.09" y="-133.95" font-family="Helvetica,sans-Serif" font-size="9.00" fill="#57534e">merkle_root · btc_price_stroops_per_btc</text>
<text xml:space="preserve" text-anchor="start" x="90.21" y="-124.95" font-family="Helvetica,sans-Serif" font-size="9.00" fill="#a8a29e">liquidation_threshold_bp</text>
</g>
<!-- liq_pub_in&#45;&gt;liq_circ -->
<g id="edge8" class="edge">
<title>liq_pub_in&#45;&gt;liq_circ</title>
<path fill="none" stroke="#dc2626" stroke-width="1.4" d="M239.96,-134.06C282.59,-132.34 333.28,-130.3 379.41,-128.44"/>
<polygon fill="#dc2626" stroke="#dc2626" stroke-width="1.4" points="379.3,-131.42 387.68,-128.1 379.06,-125.47 379.3,-131.42"/>
</g>
<!-- liq_out -->
<g id="node12" class="node">
<title>liq_out</title>
<path fill="#fef2f2" stroke="#dc2626" stroke-width="1.6" d="M1058.5,-154.86C1058.5,-154.86 786.07,-154.86 786.07,-154.86 780.07,-154.86 774.07,-148.86 774.07,-142.86 774.07,-142.86 774.07,-119.14 774.07,-119.14 774.07,-113.14 780.07,-107.14 786.07,-107.14 786.07,-107.14 1058.5,-107.14 1058.5,-107.14 1064.5,-107.14 1070.5,-113.14 1070.5,-119.14 1070.5,-119.14 1070.5,-142.86 1070.5,-142.86 1070.5,-148.86 1064.5,-154.86 1058.5,-154.86"/>
<text xml:space="preserve" text-anchor="start" x="883.28" y="-136.05" font-family="Helvetica,sans-Serif" font-weight="bold" font-size="11.00" fill="#1c1917">Public Outputs</text>
<text xml:space="preserve" text-anchor="start" x="901.28" y="-126.95" font-family="Helvetica,sans-Serif" font-size="9.00" fill="#57534e">[0] nullifier</text>
<text xml:space="preserve" text-anchor="start" x="789.91" y="-117.95" font-family="Helvetica,sans-Serif" font-size="9.00" fill="#a8a29e">[1] usdc_debt (revealed!) · [2] merkle_root · [3] price · [4] threshold</text>
</g>
<!-- liq_circ&#45;&gt;liq_out -->
<g id="edge9" class="edge">
<title>liq_circ&#45;&gt;liq_out</title>
<path fill="none" stroke="#0284c7" stroke-width="2" d="M644.68,-125.54C681.9,-126.27 723,-127.08 761.87,-127.85"/>
<polygon fill="#0284c7" stroke="#0284c7" stroke-width="2" points="761.73,-130.82 770.28,-128.02 761.84,-124.88 761.73,-130.82"/>
</g>
<!-- liq_out&#45;&gt;verifier -->
<g id="edge12" class="edge">
<title>liq_out&#45;&gt;verifier</title>
<path fill="none" stroke="#0284c7" stroke-width="1.4" d="M981.86,-155.64C1056.53,-187.06 1185.4,-241.28 1264.26,-274.46"/>
<polygon fill="#0284c7" stroke="#0284c7" stroke-width="1.4" points="1262.68,-277.03 1271.67,-277.58 1264.99,-271.54 1262.68,-277.03"/>
<text xml:space="preserve" text-anchor="middle" x="1147.37" y="-244.21" font-family="Helvetica,sans-Serif" font-size="10.00" fill="#0284c7">verify_liquidation</text>
</g>
</g>
</svg>
