<?xml version="1.0" encoding="UTF-8" standalone="no"?>
<!DOCTYPE svg PUBLIC "-//W3C//DTD SVG 1.1//EN"
 "http://www.w3.org/Graphics/SVG/1.1/DTD/svg11.dtd">
<!-- Generated by graphviz version 15.0.0 (20260523.1842)
 -->
<!-- Title: commitment&#45;state&#45;machine Pages: 1 -->
<svg width="2400pt" height="408pt"
 viewBox="0.00 0.00 2400.00 408.00" xmlns="http://www.w3.org/2000/svg" xmlns:xlink="http://www.w3.org/1999/xlink">
<g id="graph0" class="graph" transform="scale(1.00757 1.00757) rotate(0) translate(50.4 354.98)">
<title>commitment&#45;state&#45;machine</title>
<text xml:space="preserve" text-anchor="start" x="35" y="-289.23" font-family="Helvetica,sans-Serif" font-weight="bold" font-size="13.00" fill="#1c1917">Writz Protocol — Commitment State Machine</text>
<text xml:space="preserve" text-anchor="start" x="8" y="-280.03" font-family="Helvetica,sans-Serif" font-size="9.00" fill="#57534e">Each state transition requires a valid Groth16 proof · nonce rotates on every change</text>
<!-- start -->
<g id="node1" class="node">
<title>start</title>
<ellipse fill="#1c1917" stroke="#1c1917" stroke-width="1.6" cx="37.25" cy="-110.72" rx="37.25" ry="37.25"/>
<text xml:space="preserve" text-anchor="middle" x="37.25" y="-106.27" font-family="Helvetica,sans-Serif" font-size="11.00" fill="#1c1917">start</text>
</g>
<!-- pending -->
<g id="node2" class="node">
<title>pending</title>
<path fill="#fffbeb" stroke="#d97706" stroke-width="1.6" d="M421.18,-134.58C421.18,-134.58 274,-134.58 274,-134.58 268,-134.58 262,-128.58 262,-122.58 262,-122.58 262,-98.86 262,-98.86 262,-92.86 268,-86.86 274,-86.86 274,-86.86 421.18,-86.86 421.18,-86.86 427.18,-86.86 433.18,-92.86 433.18,-98.86 433.18,-98.86 433.18,-122.58 433.18,-122.58 433.18,-128.58 427.18,-134.58 421.18,-134.58"/>
<text xml:space="preserve" text-anchor="start" x="325.84" y="-115.77" font-family="Helvetica,sans-Serif" font-weight="bold" font-size="11.00" fill="#1c1917">Pending</text>
<text xml:space="preserve" text-anchor="start" x="294.34" y="-106.67" font-family="Helvetica,sans-Serif" font-size="9.00" fill="#57534e">deposit() verified on&#45;chain</text>
<text xml:space="preserve" text-anchor="start" x="277.84" y="-97.67" font-family="Helvetica,sans-Serif" font-size="9.00" fill="#a8a29e">insert_commitment() not yet called</text>
</g>
<!-- start&#45;&gt;pending -->
<g id="edge1" class="edge">
<title>start&#45;&gt;pending</title>
<path fill="none" stroke="#ea580c" stroke-width="2" d="M75.14,-110.72C118.09,-110.72 190.71,-110.72 250.04,-110.72"/>
<polygon fill="#ea580c" stroke="#ea580c" stroke-width="2" points="249.81,-113.7 258.31,-110.72 249.81,-107.75 249.81,-113.7"/>
<text xml:space="preserve" text-anchor="middle" x="168.25" y="-112.47" font-family="Helvetica,sans-Serif" font-size="10.00" fill="#ea580c">deposit() + ZK deposit proof</text>
</g>
<!-- active_0 -->
<g id="node3" class="node">
<title>active_0</title>
<path fill="#eff6ff" stroke="#2563eb" stroke-width="1.6" d="M839.86,-134.58C839.86,-134.58 680.68,-134.58 680.68,-134.58 674.68,-134.58 668.68,-128.58 668.68,-122.58 668.68,-122.58 668.68,-98.86 668.68,-98.86 668.68,-92.86 674.68,-86.86 680.68,-86.86 680.68,-86.86 839.86,-86.86 839.86,-86.86 845.86,-86.86 851.86,-92.86 851.86,-98.86 851.86,-98.86 851.86,-122.58 851.86,-122.58 851.86,-128.58 845.86,-134.58 839.86,-134.58"/>
<text xml:space="preserve" text-anchor="start" x="721.27" y="-115.77" font-family="Helvetica,sans-Serif" font-weight="bold" font-size="11.00" fill="#1c1917">Active · debt=0</text>
<text xml:space="preserve" text-anchor="start" x="705.52" y="-106.67" font-family="Helvetica,sans-Serif" font-size="9.00" fill="#57534e">Commitment in Merkle tree</text>
<text xml:space="preserve" text-anchor="start" x="684.52" y="-97.67" font-family="Helvetica,sans-Serif" font-size="9.00" fill="#a8a29e">Poseidon(collateral, 0, secret, nonce)</text>
</g>
<!-- pending&#45;&gt;active_0 -->
<g id="edge2" class="edge">
<title>pending&#45;&gt;active_0</title>
<path fill="none" stroke="#7c3aed" stroke-width="2" d="M433.68,-110.72C498.56,-110.72 588.16,-110.72 656.94,-110.72"/>
<polygon fill="#7c3aed" stroke="#7c3aed" stroke-width="2" points="656.7,-113.7 665.2,-110.72 656.7,-107.75 656.7,-113.7"/>
<text xml:space="preserve" text-anchor="middle" x="550.93" y="-112.47" font-family="Helvetica,sans-Serif" font-size="10.00" fill="#7c3aed">insert_commitment() · admin (Phase 1)</text>
</g>
<!-- active_d -->
<g id="node4" class="node">
<title>active_d</title>
<path fill="#eff6ff" stroke="#2563eb" stroke-width="1.6" d="M1307.29,-186.58C1307.29,-186.58 1135.36,-186.58 1135.36,-186.58 1129.36,-186.58 1123.36,-180.58 1123.36,-174.58 1123.36,-174.58 1123.36,-150.86 1123.36,-150.86 1123.36,-144.86 1129.36,-138.86 1135.36,-138.86 1135.36,-138.86 1307.29,-138.86 1307.29,-138.86 1313.29,-138.86 1319.29,-144.86 1319.29,-150.86 1319.29,-150.86 1319.29,-174.58 1319.29,-174.58 1319.29,-180.58 1313.29,-186.58 1307.29,-186.58"/>
<text xml:space="preserve" text-anchor="start" x="1182.33" y="-167.77" font-family="Helvetica,sans-Serif" font-weight="bold" font-size="11.00" fill="#1c1917">Active · debt&gt;0</text>
<text xml:space="preserve" text-anchor="start" x="1187.58" y="-158.67" font-family="Helvetica,sans-Serif" font-size="9.00" fill="#57534e">USDC borrowed</text>
<text xml:space="preserve" text-anchor="start" x="1139.2" y="-149.67" font-family="Helvetica,sans-Serif" font-size="9.00" fill="#a8a29e">Poseidon(collateral, debt, secret, nonce)</text>
</g>
<!-- active_0&#45;&gt;active_d -->
<g id="edge3" class="edge">
<title>active_0&#45;&gt;active_d</title>
<path fill="none" stroke="#2563eb" stroke-width="2" d="M852.51,-121.06C927.03,-129.5 1032.55,-141.45 1111.47,-150.39"/>
<polygon fill="#2563eb" stroke="#2563eb" stroke-width="2" points="1111.12,-153.35 1119.9,-151.35 1111.79,-147.44 1111.12,-153.35"/>
<text xml:space="preserve" text-anchor="middle" x="987.61" y="-149.11" font-family="Helvetica,sans-Serif" font-size="10.00" fill="#2563eb">borrow() · ZK borrow_repay proof · is_borrow=1</text>
</g>
<!-- released -->
<g id="node7" class="node">
<title>released</title>
<ellipse fill="#f0fdf4" stroke="#16a34a" stroke-width="1.6" cx="2170.44" cy="-110.72" rx="106.72" ry="106.72"/>
<ellipse fill="none" stroke="#16a34a" stroke-width="1.6" cx="2170.44" cy="-110.72" rx="110.72" ry="110.72"/>
<text xml:space="preserve" text-anchor="start" x="2133.32" y="-115.77" font-family="Helvetica,sans-Serif" font-weight="bold" font-size="11.00" fill="#1c1917">BTC Released</text>
<text xml:space="preserve" text-anchor="start" x="2126.19" y="-106.67" font-family="Helvetica,sans-Serif" font-size="9.00" fill="#57534e">Path A PSBT finalized</text>
<text xml:space="preserve" text-anchor="start" x="2110.82" y="-97.67" font-family="Helvetica,sans-Serif" font-size="9.00" fill="#a8a29e">Collateral returned on Bitcoin</text>
</g>
<!-- active_0&#45;&gt;released -->
<g id="edge8" class="edge">
<title>active_0&#45;&gt;released</title>
<path fill="none" stroke="#78716c" stroke-width="1.4" stroke-dasharray="5,2" d="M852.58,-110.72C1098.08,-110.72 1772.41,-110.72 2048.83,-110.72"/>
<polygon fill="#78716c" stroke="#78716c" stroke-width="1.4" points="2048.68,-113.7 2057.18,-110.72 2048.68,-107.75 2048.68,-113.7"/>
<text xml:space="preserve" text-anchor="middle" x="1440.42" y="-112.47" font-family="Helvetica,sans-Serif" font-size="10.00" fill="#57534e">withdraw (no debt)</text>
</g>
<!-- active_d&#45;&gt;active_d -->
<g id="edge4" class="edge">
<title>active_d&#45;&gt;active_d</title>
<path fill="none" stroke="#2563eb" stroke-width="1.4" stroke-dasharray="5,2" d="M1185.78,-187.3C1172.04,-206.69 1183.88,-226.58 1221.33,-226.58 1252.63,-226.58 1266.04,-212.68 1261.57,-196.79"/>
<polygon fill="#2563eb" stroke="#2563eb" stroke-width="1.4" points="1264.24,-195.5 1257.81,-189.2 1258.91,-198.14 1264.24,-195.5"/>
<text xml:space="preserve" text-anchor="middle" x="1221.33" y="-228.33" font-family="Helvetica,sans-Serif" font-size="10.00" fill="#2563eb">borrow() / partial repay() · nonce rotates</text>
</g>
<!-- closed -->
<g id="node5" class="node">
<title>closed</title>
<path fill="#f0fdf4" stroke="#16a34a" stroke-width="1.6" d="M1755.97,-274.58C1755.97,-274.58 1573.54,-274.58 1573.54,-274.58 1567.54,-274.58 1561.54,-268.58 1561.54,-262.58 1561.54,-262.58 1561.54,-238.86 1561.54,-238.86 1561.54,-232.86 1567.54,-226.86 1573.54,-226.86 1573.54,-226.86 1755.97,-226.86 1755.97,-226.86 1761.97,-226.86 1767.97,-232.86 1767.97,-238.86 1767.97,-238.86 1767.97,-262.58 1767.97,-262.58 1767.97,-268.58 1761.97,-274.58 1755.97,-274.58"/>
<text xml:space="preserve" text-anchor="start" x="1623.88" y="-255.77" font-family="Helvetica,sans-Serif" font-weight="bold" font-size="11.00" fill="#1c1917">Closed · debt=0</text>
<text xml:space="preserve" text-anchor="start" x="1624.63" y="-246.67" font-family="Helvetica,sans-Serif" font-size="9.00" fill="#57534e">Full repay complete</text>
<text xml:space="preserve" text-anchor="start" x="1577.38" y="-237.67" font-family="Helvetica,sans-Serif" font-size="9.00" fill="#a8a29e">Old nullifier spent · new commitment in tree</text>
</g>
<!-- active_d&#45;&gt;closed -->
<g id="edge5" class="edge">
<title>active_d&#45;&gt;closed</title>
<path fill="none" stroke="#16a34a" stroke-width="2" d="M1320.02,-182.2C1387.88,-195.73 1478.53,-213.8 1549.7,-227.99"/>
<polygon fill="#16a34a" stroke="#16a34a" stroke-width="2" points="1549.06,-230.89 1557.98,-229.64 1550.23,-225.06 1549.06,-230.89"/>
<text xml:space="preserve" text-anchor="middle" x="1440.42" y="-224.01" font-family="Helvetica,sans-Serif" font-size="10.00" fill="#16a34a">repay() full debt · ZK proof · is_borrow=0</text>
</g>
<!-- liquidated -->
<g id="node6" class="node">
<title>liquidated</title>
<path fill="#fef2f2" stroke="#dc2626" stroke-width="1.6" d="M1744.72,-186.58C1744.72,-186.58 1584.79,-186.58 1584.79,-186.58 1578.79,-186.58 1572.79,-180.58 1572.79,-174.58 1572.79,-174.58 1572.79,-150.86 1572.79,-150.86 1572.79,-144.86 1578.79,-138.86 1584.79,-138.86 1584.79,-138.86 1744.72,-138.86 1744.72,-138.86 1750.72,-138.86 1756.72,-144.86 1756.72,-150.86 1756.72,-150.86 1756.72,-174.58 1756.72,-174.58 1756.72,-180.58 1750.72,-186.58 1744.72,-186.58"/>
<text xml:space="preserve" text-anchor="start" x="1637.01" y="-167.77" font-family="Helvetica,sans-Serif" font-weight="bold" font-size="11.00" fill="#1c1917">Liquidated</text>
<text xml:space="preserve" text-anchor="start" x="1607.01" y="-158.67" font-family="Helvetica,sans-Serif" font-size="9.00" fill="#57534e">Ratio &lt; 120% · keeper acted</text>
<text xml:space="preserve" text-anchor="start" x="1588.63" y="-149.67" font-family="Helvetica,sans-Serif" font-size="9.00" fill="#a8a29e">Nullifier spent · debt repaid by keeper</text>
</g>
<!-- active_d&#45;&gt;liquidated -->
<g id="edge6" class="edge">
<title>active_d&#45;&gt;liquidated</title>
<path fill="none" stroke="#dc2626" stroke-width="2" d="M1320.02,-162.72C1391.49,-162.72 1488.25,-162.72 1560.9,-162.72"/>
<polygon fill="#dc2626" stroke="#dc2626" stroke-width="2" points="1560.82,-165.7 1569.32,-162.72 1560.82,-159.75 1560.82,-165.7"/>
<text xml:space="preserve" text-anchor="middle" x="1440.42" y="-164.47" font-family="Helvetica,sans-Serif" font-size="10.00" fill="#dc2626">liquidate() · ratio &lt; 120% · keeper proof</text>
</g>
<!-- closed&#45;&gt;released -->
<g id="edge7" class="edge">
<title>closed&#45;&gt;released</title>
<path fill="none" stroke="#e3a646" stroke-width="2.5" d="M1754.36,-226.1C1836.84,-203.17 1960.36,-168.84 2051.23,-143.58"/>
<polygon fill="#e3a646" stroke="#e3a646" stroke-width="2.5" points="2051.94,-146.47 2059.33,-141.33 2050.35,-140.74 2051.94,-146.47"/>
<text xml:space="preserve" text-anchor="middle" x="1913.85" y="-211.11" font-family="Helvetica,sans-Serif" font-size="10.00" fill="#e3a646">Path A PSBT · /api/cosign · Xverse sign · broadcast</text>
</g>
</g>
</svg>
