<?xml version="1.0" encoding="UTF-8" standalone="no"?>
<!DOCTYPE svg PUBLIC "-//W3C//DTD SVG 1.1//EN"
 "http://www.w3.org/Graphics/SVG/1.1/DTD/svg11.dtd">
<!-- Generated by graphviz version 15.0.0 (20260523.1842)
 -->
<!-- Title: contract&#45;interactions Pages: 1 -->
<svg width="2100pt" height="1031pt"
 viewBox="0.00 0.00 2100.00 1031.00" xmlns="http://www.w3.org/2000/svg" xmlns:xlink="http://www.w3.org/1999/xlink">
<g id="graph0" class="graph" transform="scale(1.65559 1.65559) rotate(0) translate(50.4 572.28)">
<title>contract&#45;interactions</title>
<text xml:space="preserve" text-anchor="start" x="8" y="-506.53" font-family="Helvetica,sans-Serif" font-weight="bold" font-size="13.00" fill="#1c1917">Writz Protocol — Soroban Contract Interactions</text>
<text xml:space="preserve" text-anchor="start" x="15.12" y="-497.33" font-family="Helvetica,sans-Serif" font-size="9.00" fill="#57534e">Four live contracts on testnet · all ZK verification goes through zk&#45;verifier</text>
<g id="clust1" class="cluster">
<title>cluster_actors</title>
<path fill="none" stroke="#059669" stroke-width="2.5" d="M295.47,-379.41C295.47,-379.41 951.47,-379.41 951.47,-379.41 957.47,-379.41 963.47,-385.41 963.47,-391.41 963.47,-391.41 963.47,-471.88 963.47,-471.88 963.47,-477.88 957.47,-483.88 951.47,-483.88 951.47,-483.88 295.47,-483.88 295.47,-483.88 289.47,-483.88 283.47,-477.88 283.47,-471.88 283.47,-471.88 283.47,-391.41 283.47,-391.41 283.47,-385.41 289.47,-379.41 295.47,-379.41"/>
<text xml:space="preserve" text-anchor="start" x="291.47" y="-469.48" font-family="Helvetica,sans-Serif" font-weight="bold" font-size="12.00" fill="#059669">External Actors</text>
</g>
<!-- borrower -->
<g id="node1" class="node">
<title>borrower</title>
<path fill="#ecfdf5" stroke="#059669" stroke-width="1.6" d="M733.93,-445.13C733.93,-445.13 631,-445.13 631,-445.13 625,-445.13 619,-439.13 619,-433.13 619,-433.13 619,-409.41 619,-409.41 619,-403.41 625,-397.41 631,-397.41 631,-397.41 733.93,-397.41 733.93,-397.41 739.93,-397.41 745.93,-403.41 745.93,-409.41 745.93,-409.41 745.93,-433.13 745.93,-433.13 745.93,-439.13 739.93,-445.13 733.93,-445.13"/>
<text xml:space="preserve" text-anchor="start" x="657.72" y="-426.32" font-family="Helvetica,sans-Serif" font-weight="bold" font-size="11.00" fill="#1c1917">Borrower</text>
<text xml:space="preserve" text-anchor="start" x="651.72" y="-417.22" font-family="Helvetica,sans-Serif" font-size="9.00" fill="#57534e">Stellar address</text>
<text xml:space="preserve" text-anchor="start" x="634.84" y="-408.22" font-family="Helvetica,sans-Serif" font-size="9.00" fill="#a8a29e">deposit · borrow · repay</text>
</g>
<!-- commitment_tree -->
<g id="node7" class="node">
<title>commitment_tree</title>
<path fill="#eff6ff" stroke="#2563eb" stroke-width="1.6" d="M559.31,-320.16C559.31,-320.16 263.62,-320.16 263.62,-320.16 257.62,-320.16 251.63,-314.16 251.63,-308.16 251.63,-308.16 251.63,-284.44 251.63,-284.44 251.63,-278.44 257.63,-272.44 263.63,-272.44 263.63,-272.44 559.31,-272.44 559.31,-272.44 565.31,-272.44 571.31,-278.44 571.31,-284.44 571.31,-284.44 571.31,-308.16 571.31,-308.16 571.31,-314.16 565.31,-320.16 559.31,-320.16"/>
<text xml:space="preserve" text-anchor="start" x="366.84" y="-301.35" font-family="Helvetica,sans-Serif" font-weight="bold" font-size="11.00" fill="#1c1917">commitment&#45;tree</text>
<text xml:space="preserve" text-anchor="start" x="366.09" y="-292.25" font-family="Helvetica,sans-Serif" font-size="9.00" fill="#57534e">CDFAP3J4WLFZC2…</text>
<text xml:space="preserve" text-anchor="start" x="267.47" y="-283.25" font-family="Helvetica,sans-Serif" font-size="9.00" fill="#a8a29e">deposit · borrow · repay · liquidateinsert_commitment · get_merkle_root</text>
</g>
<!-- borrower&#45;&gt;commitment_tree -->
<g id="edge1" class="edge">
<title>borrower&#45;&gt;commitment_tree</title>
<path fill="none" stroke="#2563eb" stroke-width="2" d="M636.69,-396.82C624.4,-390.85 611.04,-384.65 598.47,-379.41 579.88,-371.66 574.37,-372 555.72,-364.41 526.81,-352.65 495.31,-338.19 469.15,-325.71"/>
<polygon fill="#2563eb" stroke="#2563eb" stroke-width="2" points="470.71,-323.16 461.76,-322.17 468.14,-328.53 470.71,-323.16"/>
<text xml:space="preserve" text-anchor="middle" x="616.09" y="-354.91" font-family="Helvetica,sans-Serif" font-size="10.00" fill="#2563eb">deposit() · borrow() · repay()</text>
</g>
<!-- lender -->
<g id="node2" class="node">
<title>lender</title>
<path fill="#ecfdf5" stroke="#059669" stroke-width="1.6" d="M933.06,-445.13C933.06,-445.13 797.88,-445.13 797.88,-445.13 791.88,-445.13 785.88,-439.13 785.88,-433.13 785.88,-433.13 785.88,-409.41 785.88,-409.41 785.88,-403.41 791.88,-397.41 797.88,-397.41 797.88,-397.41 933.06,-397.41 933.06,-397.41 939.06,-397.41 945.06,-403.41 945.06,-409.41 945.06,-409.41 945.06,-433.13 945.06,-433.13 945.06,-439.13 939.06,-445.13 933.06,-445.13"/>
<text xml:space="preserve" text-anchor="start" x="847.09" y="-426.32" font-family="Helvetica,sans-Serif" font-weight="bold" font-size="11.00" fill="#1c1917">Lender</text>
<text xml:space="preserve" text-anchor="start" x="834.72" y="-417.22" font-family="Helvetica,sans-Serif" font-size="9.00" fill="#57534e">Stellar address</text>
<text xml:space="preserve" text-anchor="start" x="801.72" y="-408.22" font-family="Helvetica,sans-Serif" font-size="9.00" fill="#a8a29e">supply_usdc · withdraw_supply</text>
</g>
<!-- private_lend -->
<g id="node8" class="node">
<title>private_lend</title>
<path fill="#eff6ff" stroke="#2563eb" stroke-width="1.6" d="M1024.06,-172.69C1024.06,-172.69 780.88,-172.69 780.88,-172.69 774.88,-172.69 768.88,-166.69 768.88,-160.69 768.88,-160.69 768.88,-136.97 768.88,-136.97 768.88,-130.97 774.88,-124.97 780.88,-124.97 780.88,-124.97 1024.06,-124.97 1024.06,-124.97 1030.06,-124.97 1036.06,-130.97 1036.06,-136.97 1036.06,-136.97 1036.06,-160.69 1036.06,-160.69 1036.06,-166.69 1030.06,-172.69 1024.06,-172.69"/>
<text xml:space="preserve" text-anchor="start" x="871.34" y="-153.88" font-family="Helvetica,sans-Serif" font-weight="bold" font-size="11.00" fill="#1c1917">private&#45;lend</text>
<text xml:space="preserve" text-anchor="start" x="855.59" y="-144.78" font-family="Helvetica,sans-Serif" font-size="9.00" fill="#57534e">CCLH2GJYG3QSHZ…</text>
<text xml:space="preserve" text-anchor="start" x="784.72" y="-135.78" font-family="Helvetica,sans-Serif" font-size="9.00" fill="#a8a29e">supply_usdc · withdraw_supplyborrow_usdc · repay_usdc</text>
</g>
<!-- lender&#45;&gt;private_lend -->
<g id="edge2" class="edge">
<title>lender&#45;&gt;private_lend</title>
<path fill="none" stroke="#2563eb" stroke-width="1.4" d="M868.68,-396.74C875.26,-348.67 890.26,-239.05 897.86,-183.47"/>
<polygon fill="#2563eb" stroke="#2563eb" stroke-width="1.4" points="900.79,-184.03 898.99,-175.21 894.89,-183.23 900.79,-184.03"/>
<text xml:space="preserve" text-anchor="middle" x="959.45" y="-292.43" font-family="Helvetica,sans-Serif" font-size="10.00" fill="#2563eb">supply_usdc() · withdraw_supply()</text>
</g>
<!-- keeper -->
<g id="node3" class="node">
<title>keeper</title>
<path fill="#fef2f2" stroke="#dc2626" stroke-width="1.6" d="M381.68,-445.13C381.68,-445.13 313.25,-445.13 313.25,-445.13 307.25,-445.13 301.25,-439.13 301.25,-433.13 301.25,-433.13 301.25,-409.41 301.25,-409.41 301.25,-403.41 307.25,-397.41 313.25,-397.41 313.25,-397.41 381.68,-397.41 381.68,-397.41 387.68,-397.41 393.68,-403.41 393.68,-409.41 393.68,-409.41 393.68,-433.13 393.68,-433.13 393.68,-439.13 387.68,-445.13 381.68,-445.13"/>
<text xml:space="preserve" text-anchor="start" x="328.72" y="-426.32" font-family="Helvetica,sans-Serif" font-weight="bold" font-size="11.00" fill="#1c1917">Keeper</text>
<text xml:space="preserve" text-anchor="start" x="317.09" y="-417.22" font-family="Helvetica,sans-Serif" font-size="9.00" fill="#57534e">Liquidation bot</text>
<text xml:space="preserve" text-anchor="start" x="326.84" y="-408.22" font-family="Helvetica,sans-Serif" font-size="9.00" fill="#a8a29e">liquidate()</text>
</g>
<!-- keeper&#45;&gt;commitment_tree -->
<g id="edge3" class="edge">
<title>keeper&#45;&gt;commitment_tree</title>
<path fill="none" stroke="#dc2626" stroke-width="1.4" d="M335.79,-396.86C330.81,-383.47 327.56,-366.69 334.47,-353.16 339.58,-343.13 347.42,-334.49 356.19,-327.2"/>
<polygon fill="#dc2626" stroke="#dc2626" stroke-width="1.4" points="357.81,-329.7 362.76,-322.17 354.2,-324.97 357.81,-329.7"/>
<text xml:space="preserve" text-anchor="middle" x="355.47" y="-354.91" font-family="Helvetica,sans-Serif" font-size="10.00" fill="#dc2626">liquidate()</text>
</g>
<!-- admin -->
<g id="node4" class="node">
<title>admin</title>
<path fill="#faf5ff" stroke="#7c3aed" stroke-width="1.6" d="M566.93,-445.13C566.93,-445.13 446,-445.13 446,-445.13 440,-445.13 434,-439.13 434,-433.13 434,-433.13 434,-409.41 434,-409.41 434,-403.41 440,-397.41 446,-397.41 446,-397.41 566.93,-397.41 566.93,-397.41 572.93,-397.41 578.93,-403.41 578.93,-409.41 578.93,-409.41 578.93,-433.13 578.93,-433.13 578.93,-439.13 572.93,-445.13 566.93,-445.13"/>
<text xml:space="preserve" text-anchor="start" x="489.22" y="-426.32" font-family="Helvetica,sans-Serif" font-weight="bold" font-size="11.00" fill="#1c1917">Admin</text>
<text xml:space="preserve" text-anchor="start" x="449.84" y="-417.22" font-family="Helvetica,sans-Serif" font-size="9.00" fill="#57534e">ADMIN_SECRET (Phase 1)</text>
<text xml:space="preserve" text-anchor="start" x="464.84" y="-408.22" font-family="Helvetica,sans-Serif" font-size="9.00" fill="#a8a29e">insert_commitment()</text>
</g>
<!-- admin&#45;&gt;commitment_tree -->
<g id="edge4" class="edge">
<title>admin&#45;&gt;commitment_tree</title>
<path fill="none" stroke="#7c3aed" stroke-width="1.4" stroke-dasharray="5,2" d="M455.32,-396.64C442.27,-388.24 429.59,-377.54 421.22,-364.41 414.98,-354.63 412.1,-342.44 410.92,-331.14"/>
<polygon fill="#7c3aed" stroke="#7c3aed" stroke-width="1.4" points="413.89,-331.1 410.38,-322.8 407.96,-331.48 413.89,-331.1"/>
<text xml:space="preserve" text-anchor="middle" x="465.84" y="-354.91" font-family="Helvetica,sans-Serif" font-size="10.00" fill="#7c3aed">insert_commitment()</text>
</g>
<!-- bitcoin_spv -->
<g id="node5" class="node">
<title>bitcoin_spv</title>
<path fill="#fff7ed" stroke="#ea580c" stroke-width="1.6" d="M216.93,-172.69C216.93,-172.69 12,-172.69 12,-172.69 6,-172.69 0,-166.69 0,-160.69 0,-160.69 0,-136.97 0,-136.97 0,-130.97 6,-124.97 12,-124.97 12,-124.97 216.93,-124.97 216.93,-124.97 222.93,-124.97 228.93,-130.97 228.93,-136.97 228.93,-136.97 228.93,-160.69 228.93,-160.69 228.93,-166.69 222.93,-172.69 216.93,-172.69"/>
<text xml:space="preserve" text-anchor="start" x="85.22" y="-153.88" font-family="Helvetica,sans-Serif" font-weight="bold" font-size="11.00" fill="#1c1917">bitcoin&#45;spv</text>
<text xml:space="preserve" text-anchor="start" x="71.72" y="-144.78" font-family="Helvetica,sans-Serif" font-size="9.00" fill="#57534e">CAE5L7BO2GNF7…</text>
<text xml:space="preserve" text-anchor="start" x="15.84" y="-135.78" font-family="Helvetica,sans-Serif" font-size="9.00" fill="#a8a29e">verify_spv_proof(headers, merkle_proof, raw_tx)</text>
</g>
<!-- zk_verifier -->
<g id="node6" class="node">
<title>zk_verifier</title>
<path fill="#f0f9ff" stroke="#0284c7" stroke-width="1.6" d="M512.43,-172.69C512.43,-172.69 280.5,-172.69 280.5,-172.69 274.5,-172.69 268.5,-166.69 268.5,-160.69 268.5,-160.69 268.5,-136.97 268.5,-136.97 268.5,-130.97 274.5,-124.97 280.5,-124.97 280.5,-124.97 512.43,-124.97 512.43,-124.97 518.43,-124.97 524.43,-130.97 524.43,-136.97 524.43,-136.97 524.43,-160.69 524.43,-160.69 524.43,-166.69 518.43,-172.69 512.43,-172.69"/>
<text xml:space="preserve" text-anchor="start" x="370.59" y="-153.88" font-family="Helvetica,sans-Serif" font-weight="bold" font-size="11.00" fill="#1c1917">zk&#45;verifier</text>
<text xml:space="preserve" text-anchor="start" x="349.59" y="-144.78" font-family="Helvetica,sans-Serif" font-size="9.00" fill="#57534e">CDV45GLXG4AOU6…</text>
<text xml:space="preserve" text-anchor="start" x="284.34" y="-135.78" font-family="Helvetica,sans-Serif" font-size="9.00" fill="#a8a29e">verify_deposit · verify_borrow_repay · verify_liquidation</text>
</g>
<!-- commitment_tree&#45;&gt;bitcoin_spv -->
<g id="edge5" class="edge">
<title>commitment_tree&#45;&gt;bitcoin_spv</title>
<path fill="none" stroke="#ea580c" stroke-width="1.4" d="M363.42,-271.77C311.12,-246.15 227.52,-205.2 171.82,-177.92"/>
<polygon fill="#ea580c" stroke="#ea580c" stroke-width="1.4" points="173.29,-175.33 164.35,-174.26 170.67,-180.67 173.29,-175.33"/>
<text xml:space="preserve" text-anchor="middle" x="328.57" y="-218.69" font-family="Helvetica,sans-Serif" font-size="10.00" fill="#ea580c">verify_spv_proof()</text>
</g>
<!-- commitment_tree&#45;&gt;zk_verifier -->
<g id="edge6" class="edge">
<title>commitment_tree&#45;&gt;zk_verifier</title>
<path fill="none" stroke="#0284c7" stroke-width="2" d="M401.18,-271.86C397.4,-262.04 393.59,-250.39 391.72,-239.44 388.64,-221.52 389.36,-201.32 391.04,-184.64"/>
<polygon fill="#0284c7" stroke="#0284c7" stroke-width="2" points="394,-185 392.05,-176.21 388.09,-184.3 394,-185"/>
<text xml:space="preserve" text-anchor="middle" x="438.59" y="-229.94" font-family="Helvetica,sans-Serif" font-size="10.00" fill="#0284c7">verify_deposit()</text>
<text xml:space="preserve" text-anchor="middle" x="438.59" y="-218.69" font-family="Helvetica,sans-Serif" font-size="10.00" fill="#0284c7">verify_borrow_repay()</text>
<text xml:space="preserve" text-anchor="middle" x="438.59" y="-207.44" font-family="Helvetica,sans-Serif" font-size="10.00" fill="#0284c7">verify_liquidation()</text>
</g>
<!-- commitment_tree&#45;&gt;private_lend -->
<g id="edge7" class="edge">
<title>commitment_tree&#45;&gt;private_lend</title>
<path fill="none" stroke="#2563eb" stroke-width="2" d="M446.67,-271.85C460.82,-262.13 477.14,-250.55 491.47,-239.44 509.64,-225.34 509.8,-215.27 530.72,-205.69 570.5,-187.46 670.64,-173 756.97,-163.36"/>
<polygon fill="#2563eb" stroke="#2563eb" stroke-width="2" points="757.1,-166.34 765.23,-162.45 756.45,-160.42 757.1,-166.34"/>
<text xml:space="preserve" text-anchor="middle" x="594.09" y="-218.69" font-family="Helvetica,sans-Serif" font-size="10.00" fill="#2563eb">borrow_usdc() · repay_usdc()</text>
</g>
<!-- usdc_token -->
<g id="node9" class="node">
<title>usdc_token</title>
<path fill="#fafaf9" stroke="#78716c" stroke-width="1.6" d="M966.68,-47.72C966.68,-47.72 838.25,-47.72 838.25,-47.72 832.25,-47.72 826.25,-41.72 826.25,-35.72 826.25,-35.72 826.25,-12 826.25,-12 826.25,-6 832.25,0 838.25,0 838.25,0 966.68,0 966.68,0 972.68,0 978.68,-6 978.68,-12 978.68,-12 978.68,-35.72 978.68,-35.72 978.68,-41.72 972.68,-47.72 966.68,-47.72"/>
<text xml:space="preserve" text-anchor="start" x="852.22" y="-28.91" font-family="Helvetica,sans-Serif" font-weight="bold" font-size="11.00" fill="#1c1917">USDC Token (SAC)</text>
<text xml:space="preserve" text-anchor="start" x="858.59" y="-19.81" font-family="Helvetica,sans-Serif" font-size="9.00" fill="#57534e">Stellar Asset Contract</text>
<text xml:space="preserve" text-anchor="start" x="842.09" y="-10.81" font-family="Helvetica,sans-Serif" font-size="9.00" fill="#a8a29e">SEP&#45;41 · 7 decimals (stroops)</text>
</g>
<!-- private_lend&#45;&gt;usdc_token -->
<g id="edge8" class="edge">
<title>private_lend&#45;&gt;usdc_token</title>
<path fill="none" stroke="#78716c" stroke-width="1.4" d="M902.47,-124.41C902.47,-105.78 902.47,-79.46 902.47,-58.56"/>
<polygon fill="#78716c" stroke="#78716c" stroke-width="1.4" points="905.44,-58.81 902.47,-50.31 899.49,-58.81 905.44,-58.81"/>
<text xml:space="preserve" text-anchor="middle" x="921.97" y="-82.47" font-family="Helvetica,sans-Serif" font-size="10.00" fill="#57534e">transfer()</text>
</g>
<!-- usdc_token&#45;&gt;borrower -->
<g id="edge10" class="edge">
<title>usdc_token&#45;&gt;borrower</title>
<path fill="none" stroke="#16a34a" stroke-width="1.4" stroke-dasharray="5,2" d="M845.6,-48.43C812.37,-65.06 772.39,-90.53 748.47,-124.97 692.01,-206.24 682.9,-327.78 682.03,-386.34"/>
<polygon fill="#16a34a" stroke="#16a34a" stroke-width="1.4" points="679.06,-386.21 681.97,-394.73 685.01,-386.25 679.06,-386.21"/>
<text xml:space="preserve" text-anchor="middle" x="745.08" y="-218.69" font-family="Helvetica,sans-Serif" font-size="10.00" fill="#16a34a">borrowed USDC</text>
</g>
<!-- usdc_token&#45;&gt;lender -->
<g id="edge9" class="edge">
<title>usdc_token&#45;&gt;lender</title>
<path fill="none" stroke="#78716c" stroke-width="1.4" stroke-dasharray="5,2" d="M965.65,-48.39C999.1,-64.46 1037.15,-89.37 1056.47,-124.97 1097.93,-201.39 1090.62,-247.11 1043.47,-320.16 1021.93,-353.51 985.19,-376.84 950.65,-392.54"/>
<polygon fill="#78716c" stroke="#78716c" stroke-width="1.4" points="949.52,-389.78 942.92,-395.91 951.9,-395.23 949.52,-389.78"/>
<text xml:space="preserve" text-anchor="middle" x="1125.63" y="-218.69" font-family="Helvetica,sans-Serif" font-size="10.00" fill="#57534e">supply / withdrawal</text>
</g>
</g>
</svg>
